<?xml version="1.0" encoding="UTF-8"?>
<svg id="Layer_2" xmlns="http://www.w3.org/2000/svg" viewBox="0 0 700.8 783.38">
  <defs>
    <style>
      .cls-1 {
        fill: #f14e95;
      }
    </style>
  </defs>
  <g id="Layer_1-2" data-name="Layer_1">
    <g>
      <path class="cls-1" d="M193.09,307.2c2.27-4.15,5.73-5.97,10.44-5.31,2.06.29,4.14.98,6.16.07.49-.22,1.12-1.21.98-1.6-1.35-3.86-3.88-6.63-8.01-7.44-4.46-.88-8.98-1.42-13.44-2.3-4.56-.89-8.65-2.75-11.75-6.41-1.67-1.97-1.08-5.28,1.32-6.17,3.24-1.2,6.57-2.19,9.81-3.26.38-2.78-1.58-3.7-3.45-4.52-.92-.4-2.05-.45-3.08-.45-2.45,0-4.9.07-7.35.19-6.28.31-11.6-2.16-16.53-5.72-.56-.4-1.01-.97-1.49-1.47-1.95-2.04-1.25-5.87,1.39-7.15,1.24-.6,2.59-1.05,3.93-1.32,1.7-.35,3.46-.38,5.16-.73.29-.06.72-1.33.51-1.59-1.29-1.64-2.69-3.2-4.15-4.69-1.52-1.56-3.41-2.41-5.61-2.52-2.1-.1-4.2-.24-6.3-.28-3.92-.08-7.58-1.31-11.19-2.64-1.98-.73-3.62-2.07-4.89-3.84-.93-1.29-.8-3.64.13-4.9,1.55-2.09,3.88-2.9,6.04-4.03,1.26-.66,1.19-2.43-.23-3.32-1.45-.91-2.98-2.01-4.6-2.26-5.52-.86-11.08-1.48-16.65-2.01-3.56-.34-6.9-1.2-9.93-3.08-1.17-.73-2.22-1.69-3.23-2.65-1.8-1.73-1.55-5.2.55-6.43,2.39-1.4,4.92-2.57,7.39-3.84-.09-.61.05-1.51-.29-1.78-2.5-1.9-5.06-3.72-7.67-5.48-1.87-1.27-3.9-1.45-5.95-.38-4.48,2.35-9.25,3.07-14.26,2.59-2.5-.24-4.76-1-6.83-2.45-2.6-1.83-3.64-5.68-2.01-8.38.71-1.17,1.78-2.13,2.71-3.16.71-.78,1.6-1.65.71-2.65-.64-.73-1.67-1.38-2.62-1.53-1.7-.28-3.5,0-5.21-.23-6.93-.95-11.3-5.12-13.81-11.42-1.01-2.54-.09-5.8,2.05-7.65,2.04-1.76,4.44-2.1,6.89-1.19,4.03,1.5,7.54,3.71,9.44,7.83,1.05,2.28,2.47,4.17,4.82,5.32,3.89,1.91,5.75,1.83,6.94-2.67.35-1.32.97-2.65,1.78-3.74,3.26-4.41,9.56-4.21,12.38.28,2.3,3.67,3.55,7.7,3.28,11.97-.33,5.15,2.13,8.72,5.85,11.66,2.46,1.94,5.14,3.62,7.75,5.38.85.57,2.13,0,2.46-1.03.75-2.32,1.3-4.73,2.29-6.94,1.48-3.28,6.05-4.27,9-2.12.84.61,1.75,1.24,2.35,2.06,3.16,4.29,5.45,8.96,5.9,14.37.12,1.39.19,2.8.2,4.19.08,8.35-.17,8.02,6.59,14.45.98.94,2.12,1.71,3.15,2.53.7-.59,1.46-.91,1.6-1.4.46-1.68.53-3.47,1.07-5.12.79-2.4,2.39-4.23,4.65-5.46,4.49-2.44,9.4-.61,11.16,4.12,1.4,3.77,1.24,7.59.35,11.37-.72,3.06-1.8,6.03-2.75,9.03-.58,1.83-.22,3.52,1,4.89,1.62,1.82,3.37,3.54,5.17,5.19.43.39,1.28.31,2.25.52.36-1.29.74-2.6,1.1-3.92.75-2.78,2.04-5.25,4.46-6.91,3.77-2.59,3.16-4.82,1.48-8.09-1.91-3.74-3.94-7.41-5.89-11.13-.64-1.23-1.2-2.5-1.74-3.78-.4-.95.61-3.13,1.68-3.55.96-.38,1.97-.87,2.96-.9,2.09-.05,4.27-.15,6.26.35,9.53,2.41,18.8,5.47,26.98,11.24,5.5,3.88,10.3,8.41,14.21,13.86,6.93,9.68,13.57,19.59,19.06,30.15,3.38,6.49,5.8,13.48,8.63,20.26.8,1.93,1.5,3.9,2.18,5.69.87.36,1.52.88,2.11.82,3.8-.37,7.6-.85,11.39-1.34.29-.04.53-.43.8-.65-1.84-28.21-14.96-82.24-28.51-111.31-.51,1.05-1.02,1.95-1.38,2.9-4.83,12.91-15.17,17.58-27.9,18.41-5.61.37-11.12-.21-16.42-2.64-8.89-4.07-13.35-11.21-14.26-20.49-.75-7.65-.87-15.4,1.96-22.83.49-1.3,1.01-2.7.98-4.04-.02-.8-.99-2.2-1.66-2.28-3.12-.36-6.28-.33-9.42-.48-7.5-.35-14.37-2.55-20.72-6.64-5.21-3.36-8.71-8.05-11.51-13.35-2.76-5.23-2.7-10.87-1.21-16.37,3.24-11.99,13.42-20.06,25.97-21.06,2.39-.19,4.93.53,7.45-1.23-.28-1.19-.46-2.55-.91-3.82-2.72-7.61-2-15.1.47-22.63,3.18-9.69,9.34-17.14,17.24-23.26,3.61-2.8,7.83-4.55,12.22-5.93,8.17-2.58,15.1-.68,21.21,5.15,5.15,4.91,9.51,10.26,11.37,17.32.26.99.81,1.96,1.45,2.75.35.44,1.25.78,1.79.65.99-.23,1.88-.86,2.83-1.29,2.54-1.16,5.05-2.39,7.64-3.44,7.76-3.14,15.14-1.77,22.15,2.25,5.85,3.36,10.81,7.72,14.27,13.62.87,1.48,1.89,2.86,2.81,4.23.94-.43,1.66-.57,2.11-1,.48-.46.73-1.17,1.05-1.79,5.5-10.72,13.98-18.22,24.9-23.11.95-.42,2.06-.79,2.68-1.53.58-.69,1.06-1.99.79-2.75-.68-1.96-1.86-3.73-2.74-5.63-5.35-11.51-3.26-21.77,5.28-30.91,1.19-1.28,2.45-2.52,3.8-3.61,3.36-2.7,7.16-4.22,11.55-4.42,8.58-.39,16.69,1.49,24.56,4.7,2.67,1.09,4.75,2.95,6.37,5.3,1.19,1.73,2.23,3.56,3.42,5.29.94,1.36,1.03,3.33,2.84,4.07,2.66-.94,3.25-3.59,4.46-5.58,3.04-4.99,7.48-8.33,12.42-11.03,6.18-3.38,12.73-3.52,19.31-1.21,1.97.69,3.87,1.65,5.68,2.7,8.52,4.94,13.17,12.34,13.66,22.21.45,9.14.25,18.2-3.37,26.85-.73,1.76-.04,3.63,1.31,4.69.27.22.57.42.87.59,9.29,5.41,12.76,14.45,15.07,24.2.24,1.01.37,2.09.3,3.12-.7,10.37-3.43,19.91-10.79,27.75-7.38,7.87-17.18,9.02-25.93,4.97-4.07-1.89-7.84-4.45-11.75-6.7-.47.41-1.31.78-1.36,1.24-.26,2.43-.3,4.88-.46,7.32-.28,4.24-1.43,8.28-3.05,12.17-4.46,10.71-14.7,15.5-25.76,12.24-4.48-1.32-8.38-3.48-11.5-6.99-1.59-1.79-3.25-3.52-4.8-5.2-1.74.9-2.15,2.28-2.47,3.63-4.84,20.06-9.9,40.07-14.36,60.21-2.64,11.93-4.72,24.01-5.28,36.28-.1,2.09-.53,4.16-.79,6.24-.31,2.43-.77,4.85-.89,7.28-.15,3.12-.04,6.26-.04,9.53.68-.49,1.41-.73,1.62-1.2,4.67-10.62,10.89-20.35,17.08-30.11,3.19-5.03,6.93-9.63,10.93-14.07,7.25-8.06,14.09-16.48,21.29-24.59,4.64-5.23,9.54-10.24,14.47-15.2,1.45-1.46,3.4-2.6,5.69-1.52,1.94.92,2.72,3.82,1.68,6.48-.76,1.95-1.8,3.8-2.54,5.76-.88,2.33-1.1,4.75-.61,7.23.16.81,1.64,2.03,2.32,1.68,6.61-3.39,12.86-2.03,19.02,1.26.49.26,1.29-.05,1.97-.1,1.64-2.15.56-4.78,1.23-7.09.4-1.37,1.07-2.59,2.56-3.07,1.82-.59,3.46-.14,4.86,1.07.79.68,1.47,1.5,2.08,2.35,3.9,5.39,7.76,10.8,11.64,16.2,6.99,9.74,12.37,20.3,16.28,31.63.79,2.3,1.84,4.51,2.81,6.74.12.27.62.63.82.57.62-.19,1.42-.42,1.73-.91,2.68-4.25,3.35-9.21,4.24-13.97,1.86-9.95,4.07-19.9,3.36-30.15-.1-1.38-.17-2.83-.64-4.1-.32-.86-1.21-1.68-2.06-2.13-.89-.47-2.01-.54-3.05-.66-4.01-.46-7.33-2.38-10.19-5.04-3.59-3.33-7.09-6.77-10.45-10.34-3.47-3.69-5.33-8.18-5.54-13.28-.07-1.75-.02-3.5-.11-5.25-.46-8.77,1.96-16.62,7.67-23.33,1.9-2.23,3.15-4.58,2.91-7.6-.08-1.03.05-2.1.19-3.14.53-3.77,3.24-6.13,7.2-6.28,2.21-.08,4.16.56,5.56,2.35.64.82,1.23,1.71,1.7,2.64,1.36,2.68,3.53,4.27,6.38,5.04,4.11,1.11,7.8,3.05,11.26,5.51,2.64,1.88,4.65,4.23,6.05,7.12,4.81,9.91,6.03,20.11,1.82,30.48-2.49,6.13-4.94,12.39-10.17,16.94-1.38,1.2-2.07,2.88-2,4.68.44,9.89-1.69,19.46-3.61,29.05-.06.28.21.91.32.91.57,0,1.44.03,1.67-.31,7.73-11.66,15.45-23.33,23.06-35.07,2.85-4.4,5.45-8.97,8.13-13.48,5.83-9.83,8.46-20.65,9.83-31.85.3-2.43.29-4.92.81-7.29,1.94-8.85,1.03-8.59-5.96-11.91-3.13-1.49-5.98-3.64-8.78-5.72-4.31-3.2-7.34-7.45-9.39-12.41-2.24-5.43-2.44-10.92-.25-16.36,2.36-5.86,5.16-11.5,9.71-16.07.99-.99,1.92-2.04,2.91-3.03,1.57-1.6,2.42-3.45,1.7-5.69-1.04-3.25-.24-6.23,1.28-9.09,1.34-2.52,4.39-3.55,7.25-2.67,3.34,1.03,5.35,3.14,5.86,6.65.33,2.28,1.59,3.82,3.84,4.49.67.2,1.35.38,1.99.66,11.15,4.83,16.29,13.7,17.18,25.47.72,9.53-1.98,17.88-7.87,25.42-3.67,4.71-7.35,9.31-12.58,12.44-.62,7.52-3.19,14.51-2.88,22.02.95-.2,1.77-.12,2.05-.48,1.31-1.63,2.53-3.34,3.69-5.09,6.57-9.97,14.1-19.14,22.58-27.55,3.48-3.45,6.85-7.02,10.26-10.53,3.01-3.1,3.7-6.57,1.84-10.57-1.32-2.85-2.53-5.76-3.62-8.71-1.36-3.69-1.64-7.49-.63-11.35.35-1.35.62-2.73.84-4.11,2.03-12.84,14.04-21.19,24.72-22.23,7.43-.72,14.64-.34,21.81,1.46,2.28.57,4.09.02,5.73-1.57,1.5-1.45,2.99-2.96,4.66-4.19,1.81-1.34,3.89-1.44,5.94-.38,5,2.59,6.53,7.69,3.6,12.33-1.3,2.05-2.85,3.93-4.44,6.11.22,1.29.31,2.69.7,3.99,3.95,12.96-.57,23.53-9.87,32.2-7.11,6.62-15.77,10.27-25.82,9.79-3.2-.15-6.21-.92-9.25-1.76-2.32-.63-4.46-2.17-7.24-1.52-.64.6-1.49,1.24-2.14,2.03-6.23,7.55-12.64,14.97-18.56,22.75-6.78,8.91-13.15,18.13-19.61,27.27-.74,1.05-.98,2.47-1.38,3.74-.03.1.54.57.74.52.66-.16,1.35-.38,1.9-.77,9.81-6.85,20.36-12.33,31.41-16.84,2.89-1.18,4.66-3.06,5.17-6.05.53-3.13,1.28-6.17,2.82-8.97,3.7-6.71,9.22-11.33,16.3-14.16,9.93-3.98,20.07-2.7,29.08,2.99,1.77,1.12,3.52,2.28,5.34,3.46,2.42-.26,4.83-.68,7.25-.75,3.36-.11,5.93,2.92,5.38,6.27-.22,1.35-.7,2.7-1.29,3.94-.44.92-1.08,1.98-1.92,2.44-4.89,2.71-7.03,7.42-9.59,12.02-6.29,11.28-15.88,18.46-28.57,21.3-2.03.46-4.15.81-6.22.77-8.03-.14-14.12-3.56-17.63-11-.88-1.88-1.63-3.82-2.28-5.36-2.93-1.85-5.26-.45-7.39.46-9.02,3.85-17.89,8.06-25.99,13.67-4.02,2.78-7.98,5.68-11.78,8.77-4.65,3.78-8.55,8.25-11.21,13.72-.92,1.88-2.16,3.6-3.1,5.48-.22.45,0,1.45.38,1.77.39.32,1.32.33,1.84.09,1.27-.58,2.42-1.4,3.64-2.08,15.1-8.32,30.77-15.18,47.77-18.58,9.6-1.92,19.24-3.62,29.12-3.38,7.35.18,14.71.05,22.07.12,2.45.02,4.93.16,7.05,1.65.86.61,1.66,1.36,1.38,2.53-.15.64-.47,1.51-.97,1.75-5.41,2.63-10.15,6.3-14.52,10.27-10.16,9.22-22.27,14.41-35.27,17.81-5.06,1.33-10.26,2-15.48,2.7-10.04,1.33-20.21,1.53-30.18,3.64-9.71,2.05-18.88,5.08-27.1,10.77-3.45,2.39-7.1,4.48-10.68,6.68-2.12,1.3-4,2.83-5.21,5.06-4.19,7.68-8.4,15.34-12.55,23.04-.49.91-.82,1.95-.97,2.97-.09.61.12,1.57.54,1.88.78.56,1.82,1.03,2.75,1.01.99-.02,2-.57,2.93-1.03,11.03-5.4,22.5-9.67,34.23-13.27,1.67-.51,3.31-1.14,4.96-1.73,1.72-.61,3.04-1.71,3.87-3.34.79-1.56,1.55-3.14,2.31-4.71,2.03-4.2,5.22-7.35,8.83-10.23,11.41-9.11,23.72-9.55,36.43-3.5,3.6,1.71,6.93,3.13,10.96,2.65,1.36-.16,2.79.12,4.17.29,1.93.24,3.9,2.24,4.11,4.22.7,6.42-.84,11.85-7.07,14.97-1.67.83-2.73,2-3.56,3.62-1.1,2.18-2.36,4.3-3.69,6.35-8.47,13.06-23.95,16.43-38.06,10.75-1.58-.64-3.07-1.72-4.35-2.88-1.81-1.63-3.92-3.26-4.97-5.35-2.98-5.93-7.28-6.33-13.15-4.85-11.95,3.02-23.25,7.67-34.45,12.64-3.05,1.35-4.42,3.4-3.87,6.69,1.45,8.64,2.24,17.32,2.6,26.06.07,1.76,2.18,3.13,3.81,2.52,3.6-1.33,7.17-2.75,10.83-4.16.79-1.25,1.8-2.32,2.23-3.59,2.19-6.41,7.29-10.15,12.53-13.67,4.93-3.31,10.49-3.64,16.17-2.32,1.36.32,2.84.62,3.94,1.4,3.54,2.51,7.55,3.4,11.7,4.13,2.87.51,5,2.94,5.19,5.88.18,2.77.15,5.59-.2,8.34-.46,3.57-3.05,5.26-6.77,4.77-1.34-.18-2.66-.47-4.27-.76-1.07,1.62-2.09,3.01-2.95,4.5-1.96,3.39-4.73,6.05-7.56,8.67-2.09,1.93-4.55,3.25-7.22,4.2-6.54,2.32-15.07-.51-17.98-6.92-.29-.64-.6-1.26-.93-1.88-2.86-5.49-3.8-5.87-9.78-3.94-8.67,2.79-9.01,3.24-9.21,12.62-.1,4.55-.15,9.1-.2,13.65-.06,5.25-.26,10.46-1.3,15.66-1.1,5.47-.93,11.1-2.07,16.64-1.56,7.58-3.63,14.94-6.4,22.14-.62,1.62-1.18,3.27-1.85,5.14,1.03,2.17,2.04,4.37,3.13,6.53.44.88,1.97,1.04,2.72.31,5.31-5.08,10.66-10.12,15.9-15.27,6.99-6.87,13.8-13.93,20.86-20.73,5.28-5.09,10.91-9.83,16.25-14.87,6.1-5.78,12.11-11.66,18.04-17.61,14.36-14.39,29.87-27.47,46.08-39.71,11.75-8.86,23.98-17.01,37.5-23.05,9.02-4.03,18.39-6.59,28.24-7.61,6.95-.72,13.84-1.85,20.89-1.65,7.73.22,15.25,1.97,22.92,2.59,1.69.14,3.33,1.01,4.97,1.62,1.97.73,2.71,3.45,1.47,5.3-.58.86-1.16,1.75-1.88,2.49-.72.75-1.58,1.39-2.45,1.97-8.86,5.97-15.37,14.19-21.68,22.58-5.05,6.71-10.08,13.44-14.93,20.29-6.32,8.93-14.14,16.47-22.18,23.74-9.87,8.93-21.89,13.72-34.77,16.33-9.59,1.95-19.26,3.48-28.99,4.64-5.87.7-11.72,2.08-17.4,3.76-9.73,2.88-19.34,6.2-28.96,9.43-2.65.89-5.3,1.91-7.74,3.24-10.75,5.86-21.42,11.88-32.14,17.81-3.41,1.88-6.41,4.24-9.09,7.06-8.31,8.73-8.32,7.52-3.73,17.95.56,1.28.97,2.63,1.5,3.92.56,1.36,2.32,2.08,3.43,1.4,2.38-1.47,4.73-3.01,7.1-4.48,11.67-7.25,24.02-13.04,37.32-16.53,9.13-2.4,18.34-4.67,27.65-6.1,14.53-2.23,29.19-3.45,43.93-2.52,2.44.15,4.85.61,7.28.92,2.08.27,4.17.8,6.24.76,8.12-.18,15.92,2.36,23.99,2.61,1.32.04,2.64.82,3.9,1.39,2.3,1.04,2.64,4.63.65,6.2-.55.43-1.07.9-1.66,1.27-.59.38-1.21.71-1.85.99-10.77,4.72-19.57,12.23-27.89,20.24-6.07,5.85-12.57,11.15-19.13,16.38-6.88,5.48-14.64,9.61-22.92,12.61-21.1,7.64-42.61,13.75-64.83,17.23-5.53.86-11.04,1.82-16.53,2.86-5.11.97-10.54,1.25-14.27,5.71-2.95,1.07-5.86,2.26-8.85,3.18-1.63.5-3.41.55-5.03.78,0,.97-.26,1.82.04,2.18,2.04,2.4,4.18,4.71,6.32,7.01,2.93,3.15,4.72,6.86,5.92,10.97,1.91,6.51,2.82,12.96.47,19.58-.81,2.29-1.16,4.74-1.65,7.14-.05.24.36.57.59.91,2.83-.65,4.87-2.67,7.06-4.33,9.23-7.01,19.02-13.08,29.34-18.36,16.83-8.62,33.77-17.01,51.55-23.55,1.31-.48,2.62-1,3.94-1.45,1.84-.63,4.03-.11,4.72,1.17.88,1.65,1.05,3.54-.04,4.99-7.9,10.5-9.99,22.87-11.91,35.39-1.62,10.49-5.17,20.34-11.32,29.1-2.21,3.14-4.53,6.24-7.16,9.02-7.94,8.4-16.49,16.12-25.26,23.67-12.6,10.85-26.6,19.3-41.39,26.59-8.16,4.02-16.55,7.59-24.71,11.59-14.19,6.95-27.24,15.74-39.94,25.1-7.94,5.85-14.87,12.75-21.74,19.74-1.22,1.25-2.37,2.58-3.48,3.93-2.51,3.09-3.84,6.61-3.82,10.64.04,5.25.03,10.5-.05,15.75-.05,3.14.14,6.37-.5,9.41-1.53,7.3-1.26,14.67-.86,21.97.46,8.36,1.63,16.69,2.77,24.99,1.05,7.68.83,15.34.3,23.02-.05.65-.51,1.28-.77,1.92-.44,1.06-2.8,1.49-3.6.65-.48-.5-1.15-.91-1.42-1.51-3.9-8.58-8.66-16.91-10.07-26.36-1.24-8.28-2.81-16.54-2.65-24.99.1-5.57.14-11.15-.17-17.86-1.23,1.76-2,2.46-2.29,3.33-2.94,8.61-5.98,17.19-8.63,25.89-1.32,4.33-2.11,8.85-2.7,13.35-.31,2.36.04,4.91.6,7.25,1.25,5.2-.1,9.66-3.12,13.83-.96,1.33-3.6,1.55-4.57.19-.8-1.11-1.66-2.32-1.95-3.61-.46-2.03-.81-4.19-.59-6.24,1.04-9.91-1.12-19.52-2.71-29.16-.74-4.5-1.42-8.97-1.59-13.52-.04-1.05,0-2.12-.23-3.14-1.98-8.97-1.59-18.1-1.83-27.18-.13-4.89-.2-9.77-1.21-14.62-.56-2.71-.46-5.57-.5-8.36-.2-14.35-.32-28.7-.52-43.05-.03-2.44-.22-4.89-.49-7.31-.06-.51-.76-1.21-1.28-1.32-.4-.09-1.35.57-1.39.97-.23,2.08-.32,4.18-.33,6.28-.08,14.35-.14,28.7-.2,43.05-.02,4.2-.04,8.37-.9,12.54-.56,2.71-.56,5.56-.62,8.35-.18,8.05-.39,16.1-.35,24.15.1,19.35-3.41,38.25-6.91,57.16-.25,1.34-.94,2.63-1.63,3.83-.27.46-1.16.84-1.7.77-.58-.08-1.3-.61-1.59-1.15-.49-.9-.89-1.94-.96-2.94-.22-3.49-.29-6.99-.41-10.49-.22-5.94-.38-11.84-1.24-17.77-.74-5.13-.68-10.53.04-15.67.74-5.24.99-10.44,1.09-15.68.15-7.7.13-15.4.32-23.1.11-4.33-1.04-8.22-2.98-12.07-5.6-11.14-13.13-20.5-23.3-27.92-15-10.95-30.59-21.01-46.18-31.07-11.18-7.21-22.4-14.31-32.72-22.78-10.17-8.34-18.41-18.29-24.82-29.59-4.85-8.54-7.46-18.02-8.9-27.84-1.53-10.41-2.46-20.83-2.21-31.35.02-1.02-.29-2.06-.46-3.08-.13-.78-1.67-1.81-2.43-1.56-2.65.87-5.35,1.63-7.91,2.72-3.86,1.65-7.61,3.57-11.43,5.31-10.55,4.81-21.58,8.22-32.8,11.03-7.94,1.99-16.05,1.57-24.01.41-4.87-.71-9.75-.87-14.6-1.47-11.8-1.45-23.7-1.74-35.48-3.4-5.52-.78-11.18-.6-16.77-1.01-2.06-.15-4.14-.58-6.12-1.18-2.44-.75-3.6-3.81-2.44-6.04,2.28-4.38,5.21-8.17,9.05-11.42,14.91-12.61,31.89-21.44,50.21-27.87,4.95-1.74,9.96-3.33,14.97-4.9,7.04-2.2,14.17-3.9,21.62-3.82,1.4.02,2.85.04,4.18-.31,5.85-1.53,11.82-1.19,17.76-1.27,2.09-.03,4.18-.19,6.26-.34.24-.02.46-.36.9-.74-.75-.68-1.37-1.55-2.21-1.96-10.08-4.89-20.19-9.72-30.28-14.56-18.02-8.65-35.64-17.98-51.27-30.62-1.09-.88-2.25-1.68-3.29-2.6-7.59-6.73-15.17-13.47-22.73-20.23-5.25-4.7-10.89-8.79-17.5-11.41-1.3-.51-2.59-1.06-3.86-1.66-1.89-.89-2.9-2.62-2.54-4.1.47-1.91,1.85-2.97,3.56-3.47,1.66-.48,3.41-.79,5.14-.87,3.5-.18,7-.18,10.5-.21,5.6-.05,11.14-.35,16.71-1.29,8.26-1.39,16.65-2.01,24.99-2.94,1.39-.16,2.83-.07,4.18-.39,10.73-2.5,21.62-1.88,32.43-1.33,6.59.33,13.11,1.99,20.12,3.12,4.34-1.89,9.12-3.96,13.91-6.04.12-1.36-1.05-2-1.92-1.83-1.65.34-3.18,1.24-4.78,1.84-6.23,2.35-12.31,2.23-18.16-1.17-.6-.35-1.12-.83-1.67-1.27-2.34-1.9-2.61-5.4-.42-7.4,1.28-1.16,2.88-1.95,4.21-3.06.23-.2.02-1.44-.36-1.76-1.95-1.59-4.17-3.03-6.62-1.27-4.38,3.14-9.2,3.01-14.11,2.24-1.32-.21-2.59-1-3.78-1.69-1.91-1.12-2.25-3.95-.62-5.41,1.29-1.15,2.78-2.06,4.15-3.13.75-.58.29-1.95-.63-2.56-2.15-1.43-4.53-1.56-7.02-1.71-8.18-.5-14.51-4.58-19.63-10.71-1.76-2.11-2.04-5.01-.88-6.84,1.48-2.33,4.68-3.54,7.34-2.82,5.24,1.42,9.55,4.3,13.03,8.41,1.57,1.85,2.93,3.88,4.43,5.79.17.22.73.42.91.31.5-.32,1.26-.8,1.28-1.23.05-1.38-.37-2.78-.3-4.16.17-3.4,2.4-6,5.62-6.71,3.08-.67,5.47.61,7.41,2.88,2.08,2.44,3.34,5.34,4.18,8.39.75,2.69,1.19,5.47,1.99,8.15.9,2.98,3.25,4.45,6.17,5,.59.11,1.49-.15,1.88-.58.68-.75,1.07-1.76,1.58-2.66.68-1.21,1.26-2.5,2.08-3.6,1.76-2.34,5.48-2.27,7.34-.1,1.89,2.21,2.83,4.81,3.45,7.55.3,1.36.36,2.77.48,4.16.12,1.38.18,2.77.25,4.02,1.33,1.02,1.91.08,2.46-.66.62-.84,1.16-1.75,1.68-2.67.72-1.28.95-2.68.31-4.01-1.52-3.15-3.12-6.27-4.76-9.36-5.09-9.61-9.52-19.49-12.61-29.94-3.38-11.43-5.41-23.13-6.88-34.94-.43-3.47-.95-6.92-1.44-10.38-.77-5.38.4-10.42,2.64-15.28.69-1.5,3.4-2.08,4.54-.91,1.45,1.5,2.91,3.02,4.16,4.68,10,13.29,22.02,24.32,36.27,32.98,8.98,5.46,17.6,11.5,24.88,19.18,2.88,3.04,5.5,6.33,8.15,9.58,1.56,1.9,2.99,3.89,5.24,5.07.18.64.37,1.28.55,1.91.2-.11.39-.22.59-.33-.4-.51-.8-1.02-1.2-1.54ZM420.09,590.69c-2.07.32-4.07.92-5.54,2.47-4.02,4.22-7.98,8.49-11.89,12.81-.26.29.06,1.14.19,1.72.01.05.7.11.87-.05,4.22-4.01,8.46-8,12.58-12.11,1.44-1.44,2.57-3.18,3.83-4.79,1.22-.51,2.45-1,3.65-1.56.26-.12.56-.55.54-.8-.08-.85-.7-1.11-1.41-.51-1.01.86-1.88,1.87-2.82,2.82ZM533.59,353.37c4.64-.21,8.86-2.04,13.12-3.57,10.95-3.93,22.36-5.77,33.81-6.99,8.74-.93,17.28-2.56,25.78-4.6,13.68-3.28,25.12-10.53,34.78-20.51,4.85-5.01,9.22-10.52,13.52-16.03,6.67-8.54,13.07-17.29,19.63-25.92,2.11-2.77,4.4-5.41,6.5-8.19.19-.25-.34-1.53-.7-1.61-6.81-1.56-13.59-3.18-20.66-1.11-2.3.67-4.86.43-7.3.66-2.09.19-4.21.27-6.25.72-12.72,2.82-24.89,7.02-35.97,14.08-5.01,3.2-10.03,6.36-14.87,9.83-14.22,10.2-28.02,20.91-40.69,33.01-2.02,1.93-4.32,3.56-6.33,5.49-5.54,5.31-11.01,10.7-16.48,16.08-.13.13-.06.66.1.85.17.21.67.41.84.31,10.84-6.39,21.71-12.72,32.47-19.25,9.92-6.02,20.46-10.68,31.23-14.86,3.89-1.51,8-2.49,12.02-3.68.24-.07.84.2.85.34.04.58.15,1.5-.17,1.72-1.71,1.18-3.49,2.3-5.35,3.24-10.62,5.37-21.43,10.37-31.86,16.09-11.34,6.22-22.32,13.09-33.47,19.66-1.84,1.08-3.47,2.36-4.49,4.28-.65.16-1.29.33-1.94.49.11.21.22.41.33.62.53-.39,1.05-.77,1.58-1.16ZM354.05,508.64c.08.91.03,1.96.27,2.95,2.92,11.88,5.55,23.81,7.86,35.82,2.07,10.73,6.21,20.73,11.71,30.16,1.22,2.09,2.71,4.07,4.32,5.89,2.92,3.29,6.6,4.9,11.11,5.02,10.09.27,19.4-2.29,28.01-7.38,11.07-6.55,19.69-15.56,26.01-26.76,2.75-4.87,5.4-9.79,8.2-14.63,4.1-7.09,6.15-14.81,7.28-22.82.15-1.02.22-2.11.05-3.12-1.04-6.3-2.88-12.25-7.79-16.78-1.8-1.66-3.46-3.46-5.22-5.17-2.54-2.47-5.52-4.23-8.81-5.56-12.44-5.02-25.44-7.45-38.76-8.32-2.79-.18-5.59-.21-8.38-.12-.99.03-2.2.37-2.89,1.01-2.83,2.64-5.18,5.71-6.24,9.48-.35,1.24-.08,2.8.35,4.07.43,1.28,1.33,2.44,2.17,3.56,4.4,5.87,8.91,11.66,13.24,17.59,2.05,2.81,3.82,5.83,5.59,8.83.21.36-.2,1.42-.63,1.73-.42.3-1.25.11-1.88.02-.31-.04-.66-.29-.87-.54-6.56-7.71-13.48-15.14-19.08-23.63-.77-1.16-1.66-2.24-2.53-3.33-.85-1.05-2.7-1.4-3.8-.61-5.69,4.08-11.66,7.69-17.86,10.94-.56.29-.89,1.04-1.43,1.71ZM296.25,387.95c5.85-1.55,11.91-3.15,17.96-4.77.34-.09.65-.25.98-.36,2.18-.75,3.54-2.18,3.68-4.55.11-1.74.12-3.49.18-5.24.35-9.41-.35-18.87,1.67-28.2.44-2.01.07-4.19.26-6.27.44-4.75-.86-8.91-3.63-12.79-3.65-5.12-7.05-10.38-9.27-16.37-1.67-4.49-5.41-7.25-9.68-9.1-4.18-1.81-8.54-2.92-13.18-3.12-7.77-.33-15.43.55-22.86,2.46-6.78,1.74-13.35,4.72-17.92,10.31-5.73,7-11.42,14-15.59,22.24-3.69,7.29-4.48,14.56-3.26,22.33.22,1.38.77,2.72.88,4.09.62,8.12,4.58,14.48,10.12,20.15,5.38,5.51,11.23,10.46,17.14,15.39,5.48,4.57,11.54,7.83,18.01,10.54,2.24.94,4.22.58,5.69-1.19,2.68-3.23,5.38-6.37,8.83-8.89,3.53-2.58,3.77-4.48,1.66-8.02-4.28-7.21-8.65-14.37-12.93-21.58-.52-.87-.75-1.92-1.02-2.92-.06-.23.21-.63.43-.84.21-.2.61-.44.83-.37.64.2,1.4.4,1.83.87,5.71,6.19,10.83,12.8,14.64,20.36,1.08,2.15,1.83,4.59,4.54,5.83ZM300.57,501.51c-2.39,2.44-4.58,4.23-6.22,6.44-5.17,6.98-11.58,13.09-14.87,21.42-.88,2.22-2.64,4.09-4.01,6.11-5.14,7.6-8.32,16.09-11.35,24.66-.83,2.34-1.29,4.73-.87,7.2,1.33,7.83,4.81,14.61,10.61,19.99,6.95,6.45,14.88,11.41,23.49,15.51,12.01,5.72,24.38,5.32,36.89,3.07,4.08-.73,8.01-2.43,11.92-3.93,3.29-1.26,6.08-3.37,8.6-5.86,2.6-2.57,4.17-5.57,4.27-9.26.19-7.33.26-14.63-1.11-21.91-1.35-7.19-2.2-14.47-3.39-21.7-1.58-9.63-2.82-19.34-5.68-28.72-1.36-4.47-2.22-5.21-6.48-5.21-4.89,0-9.78.05-14.67.16-2.31.05-3.96,1.29-4.85,3.38-.54,1.27-.88,2.64-1.26,3.98-1.83,6.37-3.6,12.76-5.48,19.12-1.58,5.35-3.52,10.56-6.49,15.33-.11.18-.7.2-1,.1-.29-.1-.7-.46-.69-.69.07-1.35.06-2.76.42-4.04,3.04-10.74,6.17-21.46,9.25-32.2.38-1.33.87-2.71.83-4.06-.03-.88-.72-2.22-1.46-2.52-5.13-2.14-10.35-4.06-16.39-6.38ZM392.56,467.47c.89,1.71,2.44,2.53,4.23,2.66,3.14.22,6.3.38,9.44.3,8.85-.22,17.49,1,25.79,4.01,7.45,2.71,15.07,2.93,22.79,2.41,8.33-.55,13.46-5.09,15.25-13.34.67-3.08,1.36-6.16,1.74-9.28.68-5.57.92-11.18-.31-16.71-2.22-9.95-5.59-19.46-10.74-28.34-3.86-6.66-7.4-13.5-9.9-20.83-.68-1.98-1.54-3.92-2.54-5.76-4.15-7.67-10.33-13-18.41-16.38-5.34-2.24-10.24-1.56-15.11,1-1.23.64-2.38,1.49-3.42,2.41-4.2,3.73-8.08,7.73-10.81,12.75-3.19,5.86-6.93,11.31-11.43,16.29-2.3,2.55-4.73,5.16-5.52,8.53,2.97,6.95,5.85,13.68,8.74,20.41.14.31.34.68.61.83.58.32,1.32.83,1.84.68,1.67-.47,3.32-1.08,4.87-1.84,8.16-4.03,16.28-8.15,24.44-12.19,2.82-1.4,5.69-2.71,8.58-3.96.93-.41,2-.66,3.01-.67.47,0,1.02.66,1.4,1.12.13.15-.04.78-.25.95-5.27,4.15-11.49,6.62-17.35,9.72-7.11,3.76-14.39,7.22-21.57,10.87-1.66.85-2.49,2.41-2.65,4.26-.09,1.04-.1,2.1-.02,3.15.64,8.81-.08,17.46-2.75,25.92-.1.31.02.69.03,1.03ZM292.54,497.48c-.52-.92-.72-1.7-1.22-2.08-3.64-2.71-7.3-5.39-11.04-7.96-2.54-1.74-5.25-1.64-7.94-.21-5.56,2.95-11.17,5.79-16.66,8.85-8.56,4.78-17.68,8.32-26.64,12.22-.3.13-.75.2-1.01.07-.54-.27-1.06-.64-1.48-1.09-.12-.12.08-.81.3-.93,5.15-2.92,10.27-5.9,15.52-8.65,8.05-4.21,16.18-8.28,24.3-12.35,6.39-3.2,6.5-4.36,2.13-8.88-3.47-3.6-5.59-7.99-7.83-12.33-1.03-2-2.69-3.23-5-3.24-5.24-.01-10.44.04-15.64,1.16-8.53,1.85-17.08,3.86-25.73,4.82-16.01,1.76-28.07,9.83-37.95,21.92-1.63,2-2.28,4.33-2.06,6.85.15,1.72.48,3.46.98,5.12,1.54,5.03,3.55,9.88,6.46,14.28,6.59,9.94,14.28,18.98,23.1,27,2.56,2.33,5.48,4.39,8.51,6.08,7.68,4.27,15.7,5.67,24.12,2.02,14.38-6.24,27.11-14.47,35.1-28.56,1.03-1.81,2.36-3.47,3.71-5.06,4.51-5.33,9.12-10.58,13.65-15.89.88-1.03,1.6-2.19,2.31-3.17ZM186.95,465.97c-5.22-2.54-9.51-4.83-13.97-6.74-7.52-3.23-12.19-9.16-15.87-16.09-.82-1.54-1.54-3.16-2.07-4.82-1.14-3.59-3.58-5.88-6.87-7.49-7.85-3.85-15.64-7.83-23.53-11.63-7.25-3.49-14.56-6.85-21.88-10.17-5.09-2.31-10.28-4.42-15.37-6.75-.85-.39-1.45-1.37-2.08-2.14-.14-.17-.01-.67.13-.94.16-.29.52-.71.73-.68,1.36.22,2.76.38,4.04.85,18.41,6.79,35.84,15.77,53.68,23.85,6.96,3.15,8.32,4.26,9.18-4.21.24-2.38,1.28-4.71,2.17-6.97,1.02-2.6,2.37-5.07,3.41-7.67,2.4-5.98,2.24-6.84-2.27-10.97-2.31-2.12-4.71-4.2-7.26-6.01-8.89-6.31-18.43-11.33-28.77-14.91-11.05-3.82-22.6-4.32-34.02-5.74-1.71-.21-3.56-.14-5.22.29-5.5,1.4-11.11,1.22-16.69,1.56-2.79.17-5.56.55-8.34.86-3.47.39-6.93.83-10.4,1.21-2.43.27-4.93.21-7.29.75-4.14.94-8.3,1.15-12.51,1.24-1.38.03-2.77.23-4.14.43-.22.03-.49.41-.55.67-.07.3-.07.79.12.95,9.38,8.38,18.94,16.55,28.13,25.13,10.04,9.37,21,17.45,33.05,23.94,17.25,9.28,34.68,18.24,52.08,27.23,13.45,6.94,27.74,11.55,42.49,14.76,2.94.64,5.93,1.1,9.89.22ZM511.08,512.71c-18.3,9.91-31.35,18.05-43.26,27.83-7.28,5.97-14.4,12.24-18.52,21.1-.87,1.86-2.45,3.39-3.65,5.1-1.6,2.29-3.15,4.6-4.68,6.93-.12.18.03.68.22.88.18.2.63.37.85.28.97-.38,1.88-.88,2.84-1.3.8-.35,1.42-.1,1.69.72.1.3.1.78-.07,1-5.07,6.26-10.84,11.88-17.05,16.95-7.07,5.78-13.46,12.23-19.57,18.93-7.05,7.73-13.68,15.86-20.15,24.09-3.86,4.91-7.06,10.35-10.52,15.57-.09.14.16.64.38.82.21.16.7.26.87.13,3.59-2.76,7.23-5.46,10.7-8.38,10.74-9.04,22.39-16.78,34.81-23.24,12.08-6.28,24.56-11.81,36.82-17.76,5.03-2.44,10.14-4.78,14.87-7.73,18.18-11.32,34.62-24.83,49.22-40.52,5.29-5.68,9.46-12.12,11.76-19.62,1.23-4,2.29-8.05,3.4-12.09,2.04-7.4,2.2-15.22,5.06-22.44.42-1.06-.6-2.35-1.53-2.08-2,.6-4.08,1.04-5.97,1.88-11.16,4.99-22.28,10.08-28.51,12.9ZM204.45,458.56c4.48-.63,8.98-1.13,13.44-1.91,12.01-2.11,23.79-5.77,36.2-5.27,2.38.09,3.69-1.61,4.48-3.75.98-2.66,1.41-5.39,1.29-8.22-.06-1.29-1.05-2.99-2.18-3.29-3.37-.88-6.74-1.84-10.16-2.49-8.26-1.57-16.38-3.67-24.22-6.7-2.91-1.13-5.63-2.73-8.42-4.17-.23-.12-.47-.7-.37-.87.3-.51.78-1.32,1.17-1.31,2.07.06,4.19.1,6.18.59,11.2,2.73,22.36,5.6,33.55,8.39,1.34.34,2.73.59,4.1.71,1.51.13,2.89-.62,3.52-1.87,1.88-3.74,3.54-7.59,5.27-11.41,1.32-2.92,1.12-3.81-1.61-4.88-7.24-2.84-13.53-7.15-19.73-11.77-7.06-5.26-13.31-11.34-19.22-17.76-4.86-5.28-10.63-8.95-17.1-11.83-9.48-4.22-18.36-3.09-26.86,2.53-3.02,1.99-5.49,4.7-6.33,8.11-1.2,4.89-3.29,9.1-6.55,12.88-.88,1.02-1.38,2.43-1.89,3.73-2.04,5.2-4.22,10.36-5.96,15.67-3.48,10.62-3.98,8.87.31,21.16.57,1.64,1.31,3.24,2.14,4.77,2.21,4.05,5.09,7.48,9.16,9.85,9.2,5.36,18.85,9.13,29.8,9.13ZM376.9,398.26c1.06-.76,2.08-1.21,2.71-1.98,4.91-5.93,9.64-11.99,13.45-18.72,1.54-2.73,3.17-5.48,5.19-7.86,8.06-9.49,10.67-21.08,12.89-32.79,1.04-5.45-.64-10.44-4.41-14.55-6.98-7.6-14.83-13.81-25.35-15.79-3.09-.58-6.12-1.48-9.18-2.22-10.22-2.47-20.17-1.03-29.92,2.32-4.96,1.71-8.24,5.23-9.63,10.32-1.56,5.74-2.89,11.51-2.74,17.56.09,3.47.05,7.04-.62,10.42-2.19,11.12-1.09,22.31-1.15,33.48,0,.34.12.69.19,1.03.41,1.85,1.52,3.29,3.28,3.74,4.39,1.12,8.82,2.09,13.28,2.93,1.4.27,2.83-.41,3.59-1.71,5.1-8.79,9.79-17.77,12.27-27.72.93-3.73,1.72-7.5,2.8-11.19.37-1.26,1.38-2.35,2.16-3.48.15-.21.71-.39.9-.27.53.31,1.31.73,1.38,1.2.15,1.01.05,2.1-.16,3.12-1.81,8.54-3.18,17.22-6.39,25.39-1.83,4.65-2.22,9.51-2.76,14.37-.17,1.5.31,2.85,1.64,3.56,2.77,1.48,5.67,2.74,8.45,4.21,2.75,1.46,5.41,3.08,8.13,4.64ZM256.17,183c-.04.66-.26,1.36-.11,1.97,1.89,7.44,3.77,14.9,5.79,22.31,3.86,14.15,7.92,28.24,10.77,42.65,1.08,5.48,2.31,10.9,3.01,16.47.87,6.9,2.65,13.69,4.08,20.52.29,1.41,1.63,2.42,2.09,1.76.38-.54.87-1.25.81-1.82-.76-6.58-1.65-13.14-2.45-19.71-.42-3.46-.95-6.93-1.03-10.4-.31-12.92-.36-25.78,1.66-38.66,1.52-9.71,3.58-19.22,6.47-28.56,2.61-8.41,6.75-16.12,12.74-22.68,1.39-1.52,3.1-2.79,4.83-3.93,2.17-1.43,5.33-.46,6.19,1.81.74,1.95,1.4,3.94,1.89,5.97,1.14,4.75,2.12,9.54,3.22,14.3,2.43,10.55,4.88,21.09,7.35,31.62.27,1.16-.19,2.6,1.25,3.44,2.24-12.77,4.63-25.45,7.84-37.96,5.74-22.32,11.46-44.65,17.17-66.98.26-1.01.35-2.06.51-3.1.23-1.47-1.17-2.69-2.58-2.28-4.36,1.27-8.67,2.73-13.08,3.77-7.03,1.66-13.93,1-20.43-2.25-4.08-2.04-7.85-4.6-10.91-8.05-1.39-1.56-2.55-3.32-3.92-4.91-.4-.47-1.16-.92-1.71-.88-.44.03-1.08.78-1.19,1.3-.74,3.41-1.35,6.85-2.02,10.27-1.51,7.75-5.98,13.24-12.95,16.79-1.87.95-3.73,1.9-5.58,2.88-.94.5-1.32,1.94-.73,2.66.89,1.08,1.78,2.15,2.72,3.18,5.94,6.55,8.56,14.2,8.15,23.05-.54,11.71-6.46,19.6-16.8,24.5-2.92,1.38-5.99,1.78-9.2.94-1.25-.33-2.58-1.33-3.86.01ZM579.47,398.02c-7.32-.04-13.99-.22-20.5,1.56-10.22.23-20.13,2.57-30,4.83-15.45,3.54-30.02,9.37-43.35,18.15-6.37,4.2-7.16,6.33-5.58,14.08.28,1.36.83,2.67,1.29,3.99.47,1.37,2.05,2.34,3.3,1.91,2.97-1.02,5.96-2.02,8.87-3.21,16.21-6.6,32.49-13.01,49.19-18.29,4.67-1.48,9.35-2.95,14.08-4.23,1.64-.44,3.44-.3,5.17-.34.26,0,.78.45.75.63-.09.59-.21,1.43-.61,1.66-1.2.69-2.5,1.31-3.83,1.63-7.5,1.84-14.75,4.4-21.9,7.26-12.35,4.94-24.73,9.78-37.03,14.85-5.17,2.13-10.15,4.73-15.24,7.08-3.24,1.49-4.65,4.08-4.7,7.53-.02,1.05-.07,2.1-.08,3.15,0,1.45,1.27,2.71,2.64,2.6,5.59-.45,11.08-1.52,16.6-2.4,21.14-3.37,41.75-8.75,61.97-15.71,8.7-3,16.51-7.5,23.88-12.97,8.46-6.26,15.8-13.82,24.09-20.26,3.03-2.36,5.93-4.88,8.8-7.42.26-.23.14-1.5-.17-1.7-2.42-1.52-5.18-2.03-7.99-2.22-3.49-.24-7.08-.01-10.47-.74-6.58-1.4-13.2-1.52-19.18-1.43ZM204.4,362.67c-.45-2.44-.63-3.83-.97-5.18-2.59-10.17-5.79-20.17-9.91-29.8-5.4-12.64-13.01-23.88-22.89-33.56-6.53-6.41-13.88-11.75-21.54-16.62-9.83-6.25-18.33-13.95-26.28-22.34-2.16-2.28-4.41-4.47-6.65-6.66-.2-.2-.86-.28-.95-.17-.35.49-.84,1.11-.77,1.62,1.06,8.3,2.21,16.59,3.33,24.88,3.44,25.48,13.48,48.28,28.08,69.24,2.01,2.88,4.2,5.58,7.54,7.08,2.03.91,3.16,2.68,3.78,4.77.3,1,.42,2.06.76,3.05,1.2,3.56,3.39,6.23,7.33,6.56,3.5.3,5.76,2.17,7.73,4.77.69.91,1.74,1.13,2.79.59,1.16-.6,1.5-2.31.77-3.68-.65-1.23-1.3-2.48-2.05-3.65-6.02-9.42-12.08-18.81-18.08-28.25-3-4.72-5.98-9.45-8.75-14.3-1.19-2.09-2.09-4.43-2.61-6.77-.26-1.17.52-2.65,1.09-3.86.21-.45,1.18-.79,1.79-.75.56.03,1.47.53,1.59.98,1.71,6.55,5.32,12.12,8.97,17.67,6.91,10.51,13.89,20.98,20.86,31.45.96,1.45,1.98,2.87,3.1,4.21.95,1.14,2.36,1.62,3.77,1.36,1.7-.3,3.34-.96,5.02-1.42,2.02-.56,4.03-1.32,6.09-1.54,2-.21,4.06.16,7.08.33ZM160.75,488.38c-1.93,0-3.66,0-5.4,0-16.77-.04-33.55-.95-50.31.45-.37.03-.87-.89-1.19-1.44-.12-.21,0-.73.19-.91.49-.48,1.03-.95,1.63-1.25,3.55-1.8,7.41-1.89,11.27-1.89,13.64,0,27.28-.13,40.91.1,5.39.09,10.39-1.06,15.32-2.89.94-.35,1.74-1.14,2.55-1.78,1.46-1.15,1.4-3.69-.14-4.46-10.44-5.24-21.55-8.26-33.15-8.95-8.36-.5-16.81-.49-25.16.11-8.33.6-16.69,1.46-24.83,3.64-17.68,4.73-34.37,11.84-50.12,21.03-5.99,3.5-11.77,7.58-16.5,12.83-.58.64-.64,1.75-.95,2.64,4.84,2.11,9.64,2.75,14.56,2.8,11.89.13,23.59,2.77,35.51,2.61,1.71-.02,3.42.71,5.15.91,8.01.93,16.1,1.58,24.02-.09,8.54-1.8,16.9-4.43,24.92-7.97,10.22-4.52,20.47-8.99,30.67-13.55.44-.2.58-1.04,1.05-1.94ZM419.44,329.94c.5-.57,1.1-1.01,1.37-1.6,2.74-6.05,5.43-12.12,8.12-18.19.73-1.65.71-3.35.42-5.13-2.27-14.13-4.92-28.21-5.73-42.54-.22-3.82-1.09-7.6-1.8-11.38-.59-3.16-2.07-5.92-4.33-8.24-1.03-1.05-2.27-1.65-3.75-1.46-1.38.18-2.74.57-4.12.79-5.83.92-11.11-.34-15.78-4.04-1.08-.86-2.17-1.75-3.38-2.39-.38-.2-1.52.21-1.72.62-.91,1.87-1.59,3.86-2.4,5.78-1.77,4.18-3.17,8.57-5.43,12.46-6.32,10.87-12.45,21.89-20.25,31.84-1.06,1.36-2.05,2.86-1.54,4.97.88.3,1.82.74,2.81.95,7.52,1.57,15.05,3.12,22.59,4.64,13.73,2.76,31.53,17.32,33.83,31.28.09.53.65.98,1.1,1.63ZM289.26,437.99c-.79.79-1.47,1.16-1.63,1.69-.6,2-1.29,4.02-1.46,6.08-.89,10.39,2,20.05,5.94,29.5,2.45,5.89,6.97,9.5,12.6,11.94,5.3,2.3,10.79,2.62,16.45,1.53,10.44-2.02,20.21-5.87,29.07-11.6,15.79-10.21,23.11-24.79,21.15-43.7-.14-1.38-.38-2.79-.84-4.09-3.06-8.59-8.7-15.03-16.56-19.59-8.11-4.71-16.99-4.53-25.53-2.67-16.52,3.58-27,14.05-31.12,30.53-.67,2.67-.97,5.6-.61,8.3.55,4.13,1.26,8.41,2.9,12.19,6.4,14.75,20.75,18.69,33.9,11.57,7.64-4.14,13.09-10.24,16.59-18.29,1.89-4.34,2.52-8.67,2.31-13.27-.16-3.66-1.48-6.89-3.88-9.53-4.16-4.56-9.37-7.04-15.75-7.41.16,1.97,1.84,1.76,2.69,2.51,1.04.92,2.25,1.66,3.25,2.62,2.39,2.27,3.82,5.09,3.68,8.4-.29,6.76-1.92,13.2-6.3,18.52-1.74,2.11-4.05,3.86-6.38,5.32-4.25,2.66-8.7,2.22-12.96-.18-8.12-4.58-12.9-16.32-10.71-25.39,3.82-15.88,25.52-27.73,43.06-15.22,2.25,1.61,4.21,3.7,6.05,5.78,4.93,5.57,6.72,12.21,5.75,19.48-2.16,16.19-11.22,27.72-25.3,35.18-10.23,5.42-20.88,5.43-31-.85-2.04-1.27-3.96-2.94-5.47-4.81-6.32-7.82-10.6-16.44-9.92-26.89.16-2.42.02-4.87.02-7.65ZM172.69,519.75c0,1.42-.14,2.8.03,4.15.65,5.19,1.16,10.4,2.15,15.53,1.53,7.87,3.18,15.79,7.34,22.8,6.45,10.86,14.16,20.64,24.03,28.74,9.74,7.99,20.19,14.94,30.45,22.17,6.56,4.63,13.14,9.22,19.75,13.77,5.75,3.96,11.54,7.85,17.35,11.73.49.33,1.22.34,1.85.4.76.07.62-1.24-.41-2.68-2.85-3.97-5.71-7.93-8.61-11.85-14.1-19.07-28.26-38.1-42.3-57.22-2.36-3.21-5.04-5.79-8.86-6.99-6.88-2.17-12.24-6.55-17.24-11.51-7.96-7.87-15.12-16.4-21.53-25.58-.94-1.34-1.48-3.25-3.99-3.45ZM302.94,292.13c.91-.48,1.83-.66,2-1.12,1.34-3.6,2.57-7.24,3.78-10.88,2.66-7.99,4.59-16.23,5.52-24.53,1.48-13.22,1.12-26.56.18-39.84-.02-.35-.07-.7-.14-1.04-2.46-11.63-4.43-23.37-7.75-34.81-.29-.99-.61-2.02-1.17-2.86-.24-.36-1.41-.59-1.72-.34-3.4,2.7-5.23,6.5-6.86,10.37-6.69,15.97-10.09,32.71-10.99,49.94-.4,7.68-.02,15.4-.14,23.09-.15,9.14,1.14,18.14,2.61,27.11.16.99.65,1.99,1.22,2.83.85,1.26,2.28,1.75,3.67,1.36.89-.25,2.09-1.03,2.28-1.79.96-3.71,1.75-7.47,2.35-11.26.49-3.1.32-6.32.98-9.38.97-4.5,1.2-9.02,1.23-13.56.07-10.5.03-21,.06-31.5,0-2.45.06-4.89.23-7.33.03-.42.76-.85,1.25-1.15.13-.08.68.24.81.5,1.88,3.87,2.41,8.02,2.42,12.25.02,12.25.04,24.5-.01,36.74-.02,4.55-.32,9.06-1.25,13.56-.63,3.06-.65,6.25-.82,9.39-.07,1.35.16,2.73.26,4.25ZM242.73,117.07c2.73.81,5.11,2.25,7.32,2.02,3.93-.4,7.66.51,11.48.67,4.24.18,8.34-.18,12.35-1.8,4.85-1.96,8.34-5.07,9.73-10.21,3.75-13.81,1.11-26.37-7.99-37.34-2.65-3.19-6.27-5.66-10.61-6.36-5.79-.93-11.26.06-15.81,3.89-2.93,2.46-5.8,5.14-8.05,8.2-3.1,4.21-5.65,8.83-8.3,13.35-.68,1.17-.92,2.62-1.23,3.97-.32,1.39,1.22,3.39,2.89,3.92,1.14.36,2.04-.14,2.78-.9,2.19-2.25,4.22-4.66,6.55-6.76.95-.86,2.46-1.18,3.78-1.5.36-.09,1.42.86,1.35,1.12-.43,1.65-.9,3.36-1.72,4.84-2.19,3.93-5.6,7.14-7.01,11.24.81,3.79,1.53,7.19,2.48,11.65ZM182.67,75.19c0,.7,0,1.4,0,2.1-.06,6.42,2.45,11.48,7.82,15.12,4.05,2.75,8.02,5.64,12.6,7.46,1.27.5,2.69.87,4.03.85.92,0,2.12-.57,2.66-1.28.53-.69.8-2.1.45-2.84-1.22-2.5-2.91-4.77-4.14-7.26-.91-1.84-1.48-3.87-2.01-5.87-.13-.51.38-1.64.79-1.74.89-.22,2.05-.25,2.82.15.87.46,1.51,1.43,2.11,2.28,1.41,2,2.71,4.07,4.08,6.1.58.87,1.13,1.79,1.84,2.54,1.6,1.67,3.61,1.95,5.78,1.4,1.54-.39,2.27-1.56,2.68-2.93.69-2.34,1.46-4.69,1.84-7.09.44-2.81,1.25-5.46,2.6-7.92,2.88-5.24,2.82-10.87,1.57-16.34-1.5-6.59-4.73-12.39-10.51-16.38-3.7-2.56-7.69-3.16-11.95-1.58-9.27,3.44-16.04,9.84-20.89,18.23-2.63,4.56-4.16,9.62-4.18,14.99ZM213.88,142.7c.26-2.86.66-5.63.68-8.4,0-.78-.98-1.93-1.77-2.24-.8-.32-2.04-.03-2.88.4-.89.45-1.65,1.3-2.27,2.12-5.31,6.99-9.46,14.66-12.84,22.73-.66,1.59-1.2,3.34-1.26,5.04-.19,5.57-.49,11.18-.09,16.73.51,7.08,5.4,12.51,12.36,13.81,8.46,1.58,16.7,1.04,24.04-4.26,4.95-3.57,7.7-8.37,6.7-14.38-.97-5.82-1.57-11.76-3.67-17.37-1.22-3.26-2.24-6.55-2.61-10.09-.45-4.2-2.39-8-4.48-11.63-.38-.66-1.76-.92-2.7-.99-.53-.04-1.49.57-1.62,1.05-1.1,4.02-1.98,8.1-3.09,12.11-.55,1.99-1.41,3.89-2.2,5.8-.08.2-.63.3-.95.27-.26-.02-.65-.25-.73-.48-1.3-3.37-.45-6.87-.61-10.23ZM358.31,604.76c-7.63,4.24-14.08,7.71-21.16,9.81-1.43.42-2.49,1.56-2.49,3.05,0,9.43-.34,18.9.37,28.29.4,5.22.95,10.42,1.02,15.66.11,8.4.23,16.79.41,25.19.07,3.15-.09,6.37.54,9.41,1.3,6.24,1.16,12.52,1.31,18.81.08,3.1.17,6.2.27,9.49,2.28-1.02,2.35-2.97,2.85-4.53,4.14-13,8.02-26.08,12.32-39.02,2.12-6.4,3.38-12.79,3.17-19.54-.16-5.24.06-10.5.15-15.74.04-2.45-.19-4.97.3-7.33,1.95-9.36,1.05-18.83,1.39-28.25.05-1.36-.22-2.74-.44-5.31ZM327.7,304.49c4.97-3.3,7.14-6.02,9.34-8.71,1.32-1.62,2.5-3.37,3.88-4.94,11.6-13.11,21.55-27.44,31.05-42.1,4.2-6.48,7.37-13.47,9.52-20.89,1.16-4.02,2.37-8.04,3.3-12.12.7-3.04,1.23-6.16,1.37-9.27.07-1.63-.78-3.33-1.37-4.95-.54-1.48-2.41-2.07-3.37-1.08-2.92,2.99-5.82,6-8.64,9.09-2.82,3.09-5.4,6.41-8.33,9.39-4.92,5-9.33,10.37-13.12,16.28-2.26,3.53-4.59,7.01-7.01,10.43-9.46,13.34-14.95,28.31-18.3,44.17-.13.61.23,1.31.36,2,1.58-.42,1.6-1.96,2.15-3.07,4.21-8.44,8.31-16.92,12.57-25.33,1.09-2.15,2.57-4.13,4.01-6.08.33-.45,1.22-.49,1.85-.72.21.61.77,1.37.58,1.8-3.45,8.01-6.84,16.05-10.55,23.94-3.1,6.6-5.84,13.31-9.29,22.18ZM178.01,140.69c1.74,0,3.51.19,5.22-.04,3.82-.5,7.69-1.36,10.62-3.95,4.45-3.94,7.75-8.91,11.04-13.82.4-.6-.1-1.99-.51-2.86-.23-.48-1.13-.84-1.75-.87-1.02-.05-2.06.15-3.08.34-2.39.46-4.76,1-7.16,1.45-1.16.22-2.39-.52-2.39-1.33,0-1.18.69-1.91,1.63-2.45.9-.52,1.8-1.1,2.78-1.42,2.64-.87,5.34-1.58,7.99-2.45.58-.19,1.06-.77,1.54-1.21.51-.46-.26-1.96-1.35-2.53-4.01-2.1-8.11-4.05-12.03-6.3-4.63-2.65-9.67-4.12-14.83-4.83-6.04-.84-11.79.58-16.64,4.48-1.89,1.52-3.72,3.25-5.11,5.22-5.27,7.47-5.18,12.99-1.71,19.51.65,1.21,1.56,2.31,2.46,3.36,6.11,7.15,14.21,9.67,23.28,9.7ZM326.57,103.14c8.26-.38,15.7-3.17,22.43-7.89,1.08-.76,1.8-2.11,2.51-3.29.33-.55.52-1.43.32-2-1.38-4.04-3.69-7.57-6.84-10.38-1.94-1.73-4.69-.96-7.11-1.03-.7-.02-1.4,0-2.1-.02-.35,0-.7-.04-1.05-.06-2.1-.11-3.52-1.07-2.97-2.04.48-.84,1.13-1.83,1.95-2.19,2.55-1.12,5.28-1.86,7.83-2.99.83-.37,1.69-1.42,1.87-2.29.35-1.67.42-3.47.22-5.17-.11-.92-.82-2.1-1.61-2.55-5.69-3.26-11.56-4.6-18.02-1.92-7.77,3.21-13.22,9.02-18.24,15.38-3.16,4-3.49,8.23-.72,12.64,1.12,1.77,1.83,3.82,3.09,5.47,4.62,6.07,10.1,10.73,18.43,10.32ZM344.47,8.89c-5.44-.4-9.61,1.71-12.95,5.78-.89,1.08-1.81,2.13-2.64,3.25-3.09,4.23-3.74,8.96-2.64,13.96.69,3.14,2.43,5.74,4.49,8.18,4.43,5.22,10.35,8.12,16.35,11.06,3.35,1.64,6,.99,8.78-.92,2.14-1.47,2.76-3.32,1.67-5.32-2.49-4.6-5.01-9.18-7.4-13.83-.44-.86-.5-2.03-.39-3.02.05-.4,1.12-1.08,1.55-.96.94.26,2.06.74,2.58,1.49,2.38,3.44,4.61,6.98,6.83,10.52,1.11,1.77,2.06,3.64,3.17,5.41.86,1.36,2.94,1.44,5.78.34,2.16-.83,3.3-2.17,2.92-3.72-1.51-6.09-2.89-12.22-4.7-18.23-1.96-6.51-6.22-10.78-13.18-11.98-3.42-.59-6.82-1.33-10.23-2ZM609.5,171.52c-16.97-1.12-32.54.21-48.04,3.35-20.55,4.16-39.06,12.94-56.55,24.14-1.13.72-1.97,1.91-2.89,2.93-.14.16-.07.66.08.87.17.23.61.49.84.42,5.42-1.67,9.64-5.67,14.77-7.8,11.63-4.82,23.15-9.85,34.59-15.09.94-.43,1.99-.62,2.87.31.53.57-.02,1.88-1.15,2.46-9.33,4.79-18.66,9.56-27.98,14.36-.78.4-1.46,1.02-2.87,2.03,3.31.19,5.74.1,8.1-.59,3.75-1.09,7.59-1.38,11.43-1.24,8.12.3,15.93-2.06,23.95-2.57,1.36-.09,2.69-.72,4.04-1.07,14.48-3.86,27.23-10.73,38.83-22.51ZM419.37,67.92h0c-.7,0-1.4-.02-2.1,0-5.87.11-7.06,1.05-8.7,6.94-.19.67-.43,1.38-.38,2.05.08,1.02.23,2.11.68,3,.46.91,1.31,1.62,2,2.4,1.15,1.3,2.39,2.53,3.42,3.92.28.38.16,1.4-.17,1.78-.38.44-1.31.85-1.81.69-2.32-.73-4.6-1.62-6.85-2.55-1.79-.74-3.4-.58-4.85.68-1.05.92-2.06,1.89-3.01,2.91-1.31,1.4-1.43,3.11-.48,4.81,3.14,5.61,7.77,9.84,12.81,13.66,1.1.83,2.38,1.51,3.67,2,7.43,2.83,12.72,1.42,16.81-4.09,5.47-7.38,7.62-15.71,5.97-24.74-1.16-6.37-5.81-14.25-15.96-13.46-.35.03-.7,0-1.05,0ZM274.89,156.46c0-8.17-1.78-12.32-7.63-17.05-2.97-2.4-6.18-4.61-9.57-6.36-4.92-2.54-10.3-4.2-14.73-7.71-.32-.25-1.41.08-1.83.47-.41.38-.77,1.46-.53,1.77,1.66,2.21,3.45,4.34,5.26,6.43,1.82,2.1,3.97,4,4.65,6.84.13.53-.21,1.41-.64,1.76-.44.36-1.36.55-1.88.34-1.27-.52-2.59-1.13-3.61-2.02-2.62-2.3-5.06-4.81-7.65-7.14-.73-.65-1.74-1.01-2.66-1.41-.22-.1-.67.14-.91.34-.25.2-.54.54-.56.83-.04.68-.06,1.41.15,2.04,2.8,8.26,7.53,15.7,10.16,24.07.69,2.19,2.62,4.13,4.33,5.83,2.46,2.46,5.16,4.7,7.9,6.87,4.1,3.25,9.5,2.89,13.4-.64,4.73-4.29,6.72-9.64,6.37-15.25ZM192.18,222.4c0,1.5-.12,1.9.02,2.19,2.86,6,5.76,11.98,8.61,17.98,4.98,10.46,10.8,20.41,18.08,29.46,3.51,4.36,6.92,8.81,10.61,13.01,4.4,5,9.62,9.09,15.26,12.64.16.1.65-.13.83-.34.18-.2.33-.7.22-.86-3.83-5.42-7.65-10.84-11.57-16.2-6.61-9.04-13.32-18-19.9-27.06-1.41-1.94-2.43-4.18-3.58-6.3-.09-.16.21-.63.44-.82.22-.18.66-.32.87-.22,2.94,1.39,4.87,3.93,6.79,6.37,8.65,11,17.19,22.08,25.82,33.1.84,1.08,1.93,1.97,2.96,2.88.19.17.7.17.96.04.28-.14.63-.54.6-.8-.1-1.03-.13-2.13-.54-3.05-6.96-15.79-16.12-30.25-26.88-43.69-7.44-9.3-17.04-15.36-29.6-18.33ZM372.08,88.43c6.97-.52,15.05-2.07,20.81-9.27.87-1.08,1.92-2.02,2.86-3.05,1.67-1.83,2.74-3.98,3.55-6.32,2.48-7.2-.7-13.35-7.86-15.32-3.44-.94-6.86-1.04-10.33-.33-2.73.55-5.47,1.03-8.19,1.62-5.56,1.21-10.52,3.56-14.5,7.76-3.42,3.61-4.16,7.85-2.15,12.51,1.7,3.92,4.45,7.03,7.61,9.82,1.91,1.69,4.09,2.59,8.2,2.57ZM456.89,253.76c-4.12-13.96-9.3-27.23-16.43-39.68-1.38-2.41-3.07-4.65-4.75-6.87-.31-.42-1.32-.68-1.81-.49-.47.18-.93,1.02-.96,1.6-.36,6.95-.42,13.88-1.51,20.81-.69,4.4-.34,9.07.22,13.54,1.07,8.62,1.92,17.29,4.62,25.64.64,1.96.82,4.09,1.02,6.17.38,3.82,1.22,7.52,2.4,11.15.45-.1.94-.07,1.05-.25,6.02-10.19,11.05-20.87,16.15-31.6ZM337.33,389.76c-6.12-.21-9.88-.34-13.65-.47-5.66-.19-11.16.83-16.52,2.48-8.89,2.75-16.32,7.85-22.65,14.59-3.11,3.31-3.99,8.1-7.55,11.19-1.23,1.07-1.74,2.99-2.56,4.54-2.63,4.97-4.45,10.26-5.86,15.68-3.17,12.16-2.41,23.57,6.75,33.26.96,1.01,1.73,2.2,2.73,3.18.99.97,2.14,1.78,3.24,2.65.93.73,2.62.96,2.78.39.17-.62.39-1.34.24-1.92-1.26-4.72-2.69-9.4-3.9-14.13-2.22-8.69-1.72-17.25.99-25.81,2.35-7.44,5.86-14.21,10.64-20.31,2.79-3.56,5.5-7.34,8.9-10.25,8.95-7.63,19.31-12.49,31.12-13.97,1-.13,1.98-.4,5.3-1.08ZM423.86,31.06c.13-2.46-.81-6.18-2.32-9.73-4.09-9.59-16.37-12.85-24.67-6.57-7.4,5.6-11.14,13.23-12.11,22.32-.07.68.02,1.41.22,2.06.19.64.48,1.39.98,1.77,2.03,1.56,4.45,1.88,6.91,1.62.49-.05,1.2-.87,1.28-1.41.65-4.47.91-9.04,3.3-13.06.26-.43,1.22-.74,1.76-.63.55.11,1.28.74,1.41,1.27.32,1.34.42,2.74.48,4.13.17,3.84-2.63,7.69-.99,11.29,1.54,3.37,4.42,6.14,6.7,9.18.42.56.78,1.16,1.2,1.71,1.14,1.51,4.02,1.8,5.7.63,3.24-2.25,5.79-5.16,7.11-8.84,1.65-4.59,2.87-9.33,3.05-15.74ZM283.54,636.93c.32-.21.64-.43.96-.64-3.09-8.87-6.25-17.72-9.24-26.63-2.26-6.71-5.2-12.92-10.67-17.72-4.04-3.55-6.32-8.32-8.13-13.28-.84-2.29-1.65-4.64-2.04-7.04-.66-3.98-2.66-7.06-5.3-10-2.44-2.71-4.88-3.59-8.29-1.89-3.51,1.75-7.39,1.99-11.25,2.11-.98.03-2.18.03-2.44,1.27-.12.56.24,1.36.64,1.86,6.25,7.96,12.64,15.83,18.81,23.85,11.71,15.23,23.29,30.55,34.93,45.83.62.81,1.34,1.53,2.02,2.29ZM315.91,497.35c2.23,1.99,4.99,2.49,7.76,2.63,4.88.25,9.78.36,14.67.34,14.32-.06,25.47-6.59,34.28-17.41,5.33-6.55,9.02-14.11,12.19-21.9.78-1.91,1.17-4.03,1.38-6.09.28-2.77.12-5.59.32-8.37.53-7.67-1.9-14.43-6.18-20.65-.18-.25-.77-.56-.82-.51-.38.4-.99.93-.94,1.34.68,5.17,2.34,10.22,1.64,15.55-1.6,12.06-5.68,22.98-14.33,31.91-12.67,13.08-28.18,20.24-46.15,22.35-1.27.15-2.67-.24-3.81.81ZM386.27,112.37h-.06c0-3.14.02-6.28-.02-9.42,0-.69-.21-1.38-.32-2.06-.34-2.14-2.27-3.4-4.67-3.06-2.26.33-3.97,1.43-4.57,3.69-.99,3.71-1.76,7.47-2.79,11.17-.36,1.3-1.2,2.47-1.88,3.67-.38.67-2.43.47-2.76-.29-.54-1.26-1.25-2.53-1.41-3.86-.33-2.77-.27-5.57-.51-8.35-.09-1.01-.34-2.14-.89-2.95-.55-.8-1.5-1.44-2.42-1.84-1.08-.46-1.97.28-2.72,1.03-.24.24-.46.53-.64.83-4.74,8.14-4.52,16.63-1.55,25.21,1.3,3.75,3.94,6.48,7.36,8.56,6.87,4.19,15.24,1.65,18.34-5.81.79-1.9,1.3-4.01,1.43-6.06.23-3.47.06-6.97.06-10.46ZM373.04,590.76c-.32,1.29-.63,1.95-.64,2.62-.1,12.52-.18,25.03-.23,37.55,0,1.02.23,2.05.44,3.06.04.21.46.43.73.47.3.05.75,0,.92-.19.69-.76,1.35-1.57,1.94-2.41,6.18-8.83,12.34-17.66,18.52-26.49,1.39-1.99,2.88-3.91,4.18-5.96.2-.32-.2-1.32-.61-1.64-.49-.38-1.31-.57-1.95-.51-7.63.72-14.45-1.4-20.7-5.67-.53-.36-1.27-.43-2.61-.85ZM217.16,365.45c1.44-1.87.79-3.98.35-5.86-2.59-11.11-.92-21.44,5.16-31.1.72-1.15,1.09-2.54,1.49-3.87.46-1.52-1.05-3.71-2.6-3.92-.69-.09-1.39-.26-2.08-.23-6.5.25-12.45-1.33-17.77-5.18-.52-.38-1.28-.46-1.95-.56-.26-.04-.63.19-.86.4-.23.21-.54.6-.48.83.34,1.33.59,2.74,1.23,3.92,4.53,8.33,7.65,17.21,10.51,26.2,1.69,5.32,3.17,10.7,4.77,16.05.39,1.3.63,2.76,2.21,3.32ZM455.18,365.13c1.5-8.26,2.78-16.51,2.17-24.9-.55-7.64-1.29-15.27-1.96-22.9-.03-.33-.16-.75-.39-.94-.5-.4-1.16-1.04-1.64-.95-2.85.53-4.96,2.45-7.21,4.09-1.9,1.39-2.54,3.29-1.97,5.53,3.37,13.17,6.78,26.33,10.2,39.49.06.22.47.35.79.56ZM220.98,126.37c3.4.07,5.9-.51,7.38-1.63,5.37-4.05,5.59-12.79.38-17.39-.74-.65-1.79-1.06-2.77-1.29-2.45-.58-4.88-.29-7.06.95-2.11,1.2-4.11,2.59-6.12,3.96-1.72,1.18-2.6,3.55-1.87,5.53.71,1.94,1.54,3.87,2.63,5.62,1.77,2.84,4.44,4.31,7.44,4.26ZM305.91,653.05c.13-8.49.27-14.4.3-20.32.03-4.18-.02-8.36-.15-12.54-.07-2.31-1.41-3.93-3.5-4.76-2.59-1.03-5.22-1.97-7.89-2.73-.88-.25-2.08-.04-2.91.4-1.03.55-.96,1.76-.59,2.78,2.83,7.87,5.54,15.78,8.59,23.56,1.5,3.82,2.74,7.81,6.15,13.61ZM423.95,354.31c2.7.58,4.76.9,6.73,1.49,2,.6,3.88,1.57,5.88,2.18.9.27,2.07.35,2.91,0,1.11-.47,1.02-1.79.78-2.78-1.99-8.1-4.05-16.19-6.14-24.48-3.31,3.77-6.2,10.48-10.16,23.6ZM465.59,299.45c0-.64.06-1.34-.01-2.02-.57-5.16-1.07-10.34-1.79-15.48-.34-2.38-1.07-4.72-1.75-7.04-.16-.55-.82-1.22-1.33-1.31-.54-.09-1.37.29-1.76.74-.67.77-1.11,1.75-1.64,2.64-1.87,3.12-2.54,6.32-1.29,9.92,1.6,4.61,2.09,9.46,2.48,14.31.11,1.43,1.4,2.85,2.49,2.95,1.53.15,3.67-1.24,4.08-2.66.19-.66.34-1.33.52-2.06ZM462.31,362.23c1.93-3.49,1.55-5.63,1.71-7.68.32-4.16.29-8.36.91-12.47,1.46-9.71.79-19.43.6-29.16,0-.32-.14-.73-.36-.95-.46-.45-.99-1.07-1.54-1.12-.58-.06-1.42.3-1.77.76-.6.8-1.26,1.82-1.27,2.75-.06,3.82-.39,7.74.33,11.44,1.42,7.25,1.36,14.53,1.4,21.83.02,4.16,0,8.32,0,14.6ZM454.22,307.02c-.32-5.68-.64-11.21-.94-16.73-.05-.95-.45-1.35-1.3-1.09-.29.09-.6.36-.76.63-3.92,6.59-6.43,13.81-9.24,20.89-.23.59,0,1.36,0,2.05.01.84,1.62,1.88,2.31,1.46,3.53-2.11,7.48-3.68,9.92-7.2ZM202.32,266.38c-.92-3.85-2.65-6.82-4.82-9.57-.54-.69-2.25-.64-2.81.06-1.83,2.26-2.67,4.78-2.56,7.72.1,2.8,1.58,4.58,3.9,5.66.77.36,2.18.21,2.86-.29,1.34-1.01,2.37-2.42,3.44-3.57ZM221.68,293.07c-.23-1.01-.18-1.83-.56-2.3-1.93-2.41-3.95-4.76-5.99-7.08-.8-.91-2.8-.32-3.52.89-.94,1.6-1.23,3.34-.33,4.91,1.36,2.38,2.98,4.62,4.56,6.87.76,1.09,2.6,1,3.6-.19.87-1.03,1.59-2.19,2.23-3.1ZM327,438.37c-.5-.52-1.04-1.48-1.84-1.84-1.55-.69-3.67.1-4.55,1.37-1.44,2.09-1.43,5.27.27,6.52.66.48,2.1.61,2.79.22,2.21-1.26,3.26-3.37,3.32-6.28ZM315.96,292.92c-3.25,6.16-4.05,11.83.4,18.35.51-5.99.52-11.15.49-16.31,0-.53-.45-1.05-.89-2.03ZM236.22,306.27c-.44-.42-.87-.91-1.4-1.27-.2-.13-.78-.05-.91.13-1.54,2.26-3.07,4.53-4.47,6.87-.31.51-.12,1.35-.08,2.03.02.32.16.85.35.9.54.14,1.45.32,1.65.06,1.69-2.17,3.3-4.4,4.8-6.7.31-.47.04-1.31.04-2.01ZM132.35,197.86c.34,5.4.51,5.89,3.76,10.32.15.21.69.32.95.23.27-.1.62-.52.61-.78-.18-3.84-1.46-7.35-3.41-10.63-.15-.25-.75-.54-.82-.47-.42.39-.74.88-1.09,1.33ZM156.04,377.49c-.56.25-1.38.36-1.63.79-.58,1,.02,1.83.86,2.45.91.66,2.19.49,2.49-.42.18-.54.13-1.33-.16-1.79-.3-.48-1.02-.7-1.56-1.03ZM92.86,191.58c-.21-.26-.44-.76-.63-.74-1.01.08-2.05.18-2.98.53-.34.13-.42.96-.62,1.47.32.11.63.32.96.33,2.25.08,3.45-.52,3.28-1.59ZM398.03,614.34c-.21-.28-.46-.79-.59-.76-1.84.4-2.68,1.9-3.48,3.38-.12.22-.03.67.13.87.15.18.62.32.8.22,1.51-.84,2.64-2.03,3.14-3.71ZM188.63,249.65c0-.34.08-.71-.02-1.01-.19-.57-.49-1.1-.75-1.65-.25.59-.55,1.16-.74,1.77-.1.31-.06.68,0,1.01.13.65.21,1.35.51,1.92.38.71,1.03-.42,1-2.04ZM168.62,261.86c.97,1.25,2.37,1.06,3.67.96.37-.03.7-.6,1.05-.93-.29-.14-.57-.37-.88-.41-1.3-.16-2.65-.58-3.85.37ZM164.71,223.45c-.27.55-.73,1.09-.75,1.65-.03.59.34,1.21.54,1.81.27-.55.72-1.09.75-1.65.03-.59-.34-1.2-.54-1.81ZM117.96,214.05c1.01.29,1.43.06,1.05-.56-.1-.17-.65-.08-.99-.05-.04,0-.04.39-.06.61ZM225.48,303.17c-.07.29-.24.59-.2.86.14,1.05.51,1.11.91.14.1-.25.05-.62-.06-.88-.05-.11-.42-.08-.65-.12ZM116.97,350.01c-.35,0-.69-.03-1.03.03-.06,0-.05.39-.07.6.34.02.68.06,1.02.02.05,0,.05-.4.08-.65ZM144.93,366.78l-.63.27.62.28v-.56ZM182.49,471.69l-.06.57.68-.22-.62-.35ZM206.81,276.11l.38-.59-.57-.11.19.7Z"/>
      <path class="cls-1" d="M193.09,307.2c2.27-4.15,5.73-5.97,10.44-5.31,2.06.29,4.14.98,6.16.07.49-.22,1.12-1.21.98-1.6-1.35-3.86-3.88-6.63-8.01-7.44-4.46-.88-8.98-1.42-13.44-2.3-4.56-.89-8.65-2.75-11.75-6.41-1.67-1.97-1.08-5.28,1.32-6.17,3.24-1.2,6.57-2.19,9.81-3.26.38-2.78-1.58-3.7-3.45-4.52-.92-.4-2.05-.45-3.08-.45-2.45,0-4.9.07-7.35.19-6.28.31-11.6-2.16-16.53-5.72-.56-.4-1.01-.97-1.49-1.47-1.95-2.04-1.25-5.87,1.39-7.15,1.24-.6,2.59-1.05,3.93-1.32,1.7-.35,3.46-.38,5.16-.73.29-.06.72-1.33.51-1.59-1.29-1.64-2.69-3.2-4.15-4.69-1.52-1.56-3.41-2.41-5.61-2.52-2.1-.1-4.2-.24-6.3-.28-3.92-.08-7.58-1.31-11.19-2.64-1.98-.73-3.62-2.07-4.89-3.84-.93-1.29-.8-3.64.13-4.9,1.55-2.09,3.88-2.9,6.04-4.03,1.26-.66,1.19-2.43-.23-3.32-1.45-.91-2.98-2.01-4.6-2.26-5.52-.86-11.08-1.48-16.65-2.01-3.56-.34-6.9-1.2-9.93-3.08-1.17-.73-2.22-1.69-3.23-2.65-1.8-1.73-1.55-5.2.55-6.43,2.39-1.4,4.92-2.57,7.39-3.84-.09-.61.05-1.51-.29-1.78-2.5-1.9-5.06-3.72-7.67-5.48-1.87-1.27-3.9-1.45-5.95-.38-4.48,2.35-9.25,3.07-14.26,2.59-2.5-.24-4.76-1-6.83-2.45-2.6-1.83-3.64-5.68-2.01-8.38.71-1.17,1.78-2.13,2.71-3.16.71-.78,1.6-1.65.71-2.65-.64-.73-1.67-1.38-2.62-1.53-1.7-.28-3.5,0-5.21-.23-6.93-.95-11.3-5.12-13.81-11.42-1.01-2.54-.09-5.8,2.05-7.65,2.04-1.76,4.44-2.1,6.89-1.19,4.03,1.5,7.54,3.71,9.44,7.83,1.05,2.28,2.47,4.17,4.82,5.32,3.89,1.91,5.75,1.83,6.94-2.67.35-1.32.97-2.65,1.78-3.74,3.26-4.41,9.56-4.21,12.38.28,2.3,3.67,3.55,7.7,3.28,11.97-.33,5.15,2.13,8.72,5.85,11.66,2.46,1.94,5.14,3.62,7.75,5.38.85.57,2.13,0,2.46-1.03.75-2.32,1.3-4.73,2.29-6.94,1.48-3.28,6.05-4.27,9-2.12.84.61,1.75,1.24,2.35,2.06,3.16,4.29,5.45,8.96,5.9,14.37.12,1.39.19,2.8.2,4.19.08,8.35-.17,8.02,6.59,14.45.98.94,2.12,1.71,3.15,2.53.7-.59,1.46-.91,1.6-1.4.46-1.68.53-3.47,1.07-5.12.79-2.4,2.39-4.23,4.65-5.46,4.49-2.44,9.4-.61,11.16,4.12,1.4,3.77,1.24,7.59.35,11.37-.72,3.06-1.8,6.03-2.75,9.03-.58,1.83-.22,3.52,1,4.89,1.62,1.82,3.37,3.54,5.17,5.19.43.39,1.28.31,2.25.52.36-1.29.74-2.6,1.1-3.92.75-2.78,2.04-5.25,4.46-6.91,3.77-2.59,3.16-4.82,1.48-8.09-1.91-3.74-3.94-7.41-5.89-11.13-.64-1.23-1.2-2.5-1.74-3.78-.4-.95.61-3.13,1.68-3.55.96-.38,1.97-.87,2.96-.9,2.09-.05,4.27-.15,6.26.35,9.53,2.41,18.8,5.47,26.98,11.24,5.5,3.88,10.3,8.41,14.21,13.86,6.93,9.68,13.57,19.59,19.06,30.15,3.38,6.49,5.8,13.48,8.63,20.26.8,1.93,1.5,3.9,2.18,5.69.87.36,1.52.88,2.11.82,3.8-.37,7.6-.85,11.39-1.34.29-.04.53-.43.8-.65-1.84-28.21-14.96-82.24-28.51-111.31-.51,1.05-1.02,1.95-1.38,2.9-4.83,12.91-15.17,17.58-27.9,18.41-5.61.37-11.12-.21-16.42-2.64-8.89-4.07-13.35-11.21-14.26-20.49-.75-7.65-.87-15.4,1.96-22.83.49-1.3,1.01-2.7.98-4.04-.02-.8-.99-2.2-1.66-2.28-3.12-.36-6.28-.33-9.42-.48-7.5-.35-14.37-2.55-20.72-6.64-5.21-3.36-8.71-8.05-11.51-13.35-2.76-5.23-2.7-10.87-1.21-16.37,3.24-11.99,13.42-20.06,25.97-21.06,2.39-.19,4.93.53,7.45-1.23-.28-1.19-.46-2.55-.91-3.82-2.72-7.61-2-15.1.47-22.63,3.18-9.69,9.34-17.14,17.24-23.26,3.61-2.8,7.83-4.55,12.22-5.93,8.17-2.58,15.1-.68,21.21,5.15,5.15,4.91,9.51,10.26,11.37,17.32.26.99.81,1.96,1.45,2.75.35.44,1.25.78,1.79.65.99-.23,1.88-.86,2.83-1.29,2.54-1.16,5.05-2.39,7.64-3.44,7.76-3.14,15.14-1.77,22.15,2.25,5.85,3.36,10.81,7.72,14.27,13.62.87,1.48,1.89,2.86,2.81,4.23.94-.43,1.66-.57,2.11-1,.48-.46.73-1.17,1.05-1.79,5.5-10.72,13.98-18.22,24.9-23.11.95-.42,2.06-.79,2.68-1.53.58-.69,1.06-1.99.79-2.75-.68-1.96-1.86-3.73-2.74-5.63-5.35-11.51-3.26-21.77,5.28-30.91,1.19-1.28,2.45-2.52,3.8-3.61,3.36-2.7,7.16-4.22,11.55-4.42,8.58-.39,16.69,1.49,24.56,4.7,2.67,1.09,4.75,2.95,6.37,5.3,1.19,1.73,2.23,3.56,3.42,5.29.94,1.36,1.03,3.33,2.84,4.07,2.66-.94,3.25-3.59,4.46-5.58,3.04-4.99,7.48-8.33,12.42-11.03,6.18-3.38,12.73-3.52,19.31-1.21,1.97.69,3.87,1.65,5.68,2.7,8.52,4.94,13.17,12.34,13.66,22.21.45,9.14.25,18.2-3.37,26.85-.73,1.76-.04,3.63,1.31,4.69.27.22.57.42.87.59,9.29,5.41,12.76,14.45,15.07,24.2.24,1.01.37,2.09.3,3.12-.7,10.37-3.43,19.91-10.79,27.75-7.38,7.87-17.18,9.02-25.93,4.97-4.07-1.89-7.84-4.45-11.75-6.7-.47.41-1.31.78-1.36,1.24-.26,2.43-.3,4.88-.46,7.32-.28,4.24-1.43,8.28-3.05,12.17-4.46,10.71-14.7,15.5-25.76,12.24-4.48-1.32-8.38-3.48-11.5-6.99-1.59-1.79-3.25-3.52-4.8-5.2-1.74.9-2.15,2.28-2.47,3.63-4.84,20.06-9.9,40.07-14.36,60.21-2.64,11.93-4.72,24.01-5.28,36.28-.1,2.09-.53,4.16-.79,6.24-.31,2.43-.77,4.85-.89,7.28-.15,3.12-.04,6.26-.04,9.53.68-.49,1.41-.73,1.62-1.2,4.67-10.62,10.89-20.35,17.08-30.11,3.19-5.03,6.93-9.63,10.93-14.07,7.25-8.06,14.09-16.48,21.29-24.59,4.64-5.23,9.54-10.24,14.47-15.2,1.45-1.46,3.4-2.6,5.69-1.52,1.94.92,2.72,3.82,1.68,6.48-.76,1.95-1.8,3.8-2.54,5.76-.88,2.33-1.1,4.75-.61,7.23.16.81,1.64,2.03,2.32,1.68,6.61-3.39,12.86-2.03,19.02,1.26.49.26,1.29-.05,1.97-.1,1.64-2.15.56-4.78,1.23-7.09.4-1.37,1.07-2.59,2.56-3.07,1.82-.59,3.46-.14,4.86,1.07.79.68,1.47,1.5,2.08,2.35,3.9,5.39,7.76,10.8,11.64,16.2,6.99,9.74,12.37,20.3,16.28,31.63.79,2.3,1.84,4.51,2.81,6.74.12.27.62.63.82.57.62-.19,1.42-.42,1.73-.91,2.68-4.25,3.35-9.21,4.24-13.97,1.86-9.95,4.07-19.9,3.36-30.15-.1-1.38-.17-2.83-.64-4.1-.32-.86-1.21-1.68-2.06-2.13-.89-.47-2.01-.54-3.05-.66-4.01-.46-7.33-2.38-10.19-5.04-3.59-3.33-7.09-6.77-10.45-10.34-3.47-3.69-5.33-8.18-5.54-13.28-.07-1.75-.02-3.5-.11-5.25-.46-8.77,1.96-16.62,7.67-23.33,1.9-2.23,3.15-4.58,2.91-7.6-.08-1.03.05-2.1.19-3.14.53-3.77,3.24-6.13,7.2-6.28,2.21-.08,4.16.56,5.56,2.35.64.82,1.23,1.71,1.7,2.64,1.36,2.68,3.53,4.27,6.38,5.04,4.11,1.11,7.8,3.05,11.26,5.51,2.64,1.88,4.65,4.23,6.05,7.12,4.81,9.91,6.03,20.11,1.82,30.48-2.49,6.13-4.94,12.39-10.17,16.94-1.38,1.2-2.07,2.88-2,4.68.44,9.89-1.69,19.46-3.61,29.05-.06.28.21.91.32.91.57,0,1.44.03,1.67-.31,7.73-11.66,15.45-23.33,23.06-35.07,2.85-4.4,5.45-8.97,8.13-13.48,5.83-9.83,8.46-20.65,9.83-31.85.3-2.43.29-4.92.81-7.29,1.94-8.85,1.03-8.59-5.96-11.91-3.13-1.49-5.98-3.64-8.78-5.72-4.31-3.2-7.34-7.45-9.39-12.41-2.24-5.43-2.44-10.92-.25-16.36,2.36-5.86,5.16-11.5,9.71-16.07.99-.99,1.92-2.04,2.91-3.03,1.57-1.6,2.42-3.45,1.7-5.69-1.04-3.25-.24-6.23,1.28-9.09,1.34-2.52,4.39-3.55,7.25-2.67,3.34,1.03,5.35,3.14,5.86,6.65.33,2.28,1.59,3.82,3.84,4.49.67.2,1.35.38,1.99.66,11.15,4.83,16.29,13.7,17.18,25.47.72,9.53-1.98,17.88-7.87,25.42-3.67,4.71-7.35,9.31-12.58,12.44-.62,7.52-3.19,14.51-2.88,22.02.95-.2,1.77-.12,2.05-.48,1.31-1.63,2.53-3.34,3.69-5.09,6.57-9.97,14.1-19.14,22.58-27.55,3.48-3.45,6.85-7.02,10.26-10.53,3.01-3.1,3.7-6.57,1.84-10.57-1.32-2.85-2.53-5.76-3.62-8.71-1.36-3.69-1.64-7.49-.63-11.35.35-1.35.62-2.73.84-4.11,2.03-12.84,14.04-21.19,24.72-22.23,7.43-.72,14.64-.34,21.81,1.46,2.28.57,4.09.02,5.73-1.57,1.5-1.45,2.99-2.96,4.66-4.19,1.81-1.34,3.89-1.44,5.94-.38,5,2.59,6.53,7.69,3.6,12.33-1.3,2.05-2.85,3.93-4.44,6.11.22,1.29.31,2.69.7,3.99,3.95,12.96-.57,23.53-9.87,32.2-7.11,6.62-15.77,10.27-25.82,9.79-3.2-.15-6.21-.92-9.25-1.76-2.32-.63-4.46-2.17-7.24-1.52-.64.6-1.49,1.24-2.14,2.03-6.23,7.55-12.64,14.97-18.56,22.75-6.78,8.91-13.15,18.13-19.61,27.27-.74,1.05-.98,2.47-1.38,3.74-.03.1.54.57.74.52.66-.16,1.35-.38,1.9-.77,9.81-6.85,20.36-12.33,31.41-16.84,2.89-1.18,4.66-3.06,5.17-6.05.53-3.13,1.28-6.17,2.82-8.97,3.7-6.71,9.22-11.33,16.3-14.16,9.93-3.98,20.07-2.7,29.08,2.99,1.77,1.12,3.52,2.28,5.34,3.46,2.42-.26,4.83-.68,7.25-.75,3.36-.11,5.93,2.92,5.38,6.27-.22,1.35-.7,2.7-1.29,3.94-.44.92-1.08,1.98-1.92,2.44-4.89,2.71-7.03,7.42-9.59,12.02-6.29,11.28-15.88,18.46-28.57,21.3-2.03.46-4.15.81-6.22.77-8.03-.14-14.12-3.56-17.63-11-.88-1.88-1.63-3.82-2.28-5.36-2.93-1.85-5.26-.45-7.39.46-9.02,3.85-17.89,8.06-25.99,13.67-4.02,2.78-7.98,5.68-11.78,8.77-4.65,3.78-8.55,8.25-11.21,13.72-.92,1.88-2.16,3.6-3.1,5.48-.22.45,0,1.45.38,1.77.39.32,1.32.33,1.84.09,1.27-.58,2.42-1.4,3.64-2.08,15.1-8.32,30.77-15.18,47.77-18.58,9.6-1.92,19.24-3.62,29.12-3.38,7.35.18,14.71.05,22.07.12,2.45.02,4.93.16,7.05,1.65.86.61,1.66,1.36,1.38,2.53-.15.64-.47,1.51-.97,1.75-5.41,2.63-10.15,6.3-14.52,10.27-10.16,9.22-22.27,14.41-35.27,17.81-5.06,1.33-10.26,2-15.48,2.7-10.04,1.33-20.21,1.53-30.18,3.64-9.71,2.05-18.88,5.08-27.1,10.77-3.45,2.39-7.1,4.48-10.68,6.68-2.12,1.3-4,2.83-5.21,5.06-4.19,7.68-8.4,15.34-12.55,23.04-.49.91-.82,1.95-.97,2.97-.09.61.12,1.57.54,1.88.78.56,1.82,1.03,2.75,1.01.99-.02,2-.57,2.93-1.03,11.03-5.4,22.5-9.67,34.23-13.27,1.67-.51,3.31-1.14,4.96-1.73,1.72-.61,3.04-1.71,3.87-3.34.79-1.56,1.55-3.14,2.31-4.71,2.03-4.2,5.22-7.35,8.83-10.23,11.41-9.11,23.72-9.55,36.43-3.5,3.6,1.71,6.93,3.13,10.96,2.65,1.36-.16,2.79.12,4.17.29,1.93.24,3.9,2.24,4.11,4.22.7,6.42-.84,11.85-7.07,14.97-1.67.83-2.73,2-3.56,3.62-1.1,2.18-2.36,4.3-3.69,6.35-8.47,13.06-23.95,16.43-38.06,10.75-1.58-.64-3.07-1.72-4.35-2.88-1.81-1.63-3.92-3.26-4.97-5.35-2.98-5.93-7.28-6.33-13.15-4.85-11.95,3.02-23.25,7.67-34.45,12.64-3.05,1.35-4.42,3.4-3.87,6.69,1.45,8.64,2.24,17.32,2.6,26.06.07,1.76,2.18,3.13,3.81,2.52,3.6-1.33,7.17-2.75,10.83-4.16.79-1.25,1.8-2.32,2.23-3.59,2.19-6.41,7.29-10.15,12.53-13.67,4.93-3.31,10.49-3.64,16.17-2.32,1.36.32,2.84.62,3.94,1.4,3.54,2.51,7.55,3.4,11.7,4.13,2.87.51,5,2.94,5.19,5.88.18,2.77.15,5.59-.2,8.34-.46,3.57-3.05,5.26-6.77,4.77-1.34-.18-2.66-.47-4.27-.76-1.07,1.62-2.09,3.01-2.95,4.5-1.96,3.39-4.73,6.05-7.56,8.67-2.09,1.93-4.55,3.25-7.22,4.2-6.54,2.32-15.07-.51-17.98-6.92-.29-.64-.6-1.26-.93-1.88-2.86-5.49-3.8-5.87-9.78-3.94-8.67,2.79-9.01,3.24-9.21,12.62-.1,4.55-.15,9.1-.2,13.65-.06,5.25-.26,10.46-1.3,15.66-1.1,5.47-.93,11.1-2.07,16.64-1.56,7.58-3.63,14.94-6.4,22.14-.62,1.62-1.18,3.27-1.85,5.14,1.03,2.17,2.04,4.37,3.13,6.53.44.88,1.97,1.04,2.72.31,5.31-5.08,10.66-10.12,15.9-15.27,6.99-6.87,13.8-13.93,20.86-20.73,5.28-5.09,10.91-9.83,16.25-14.87,6.1-5.78,12.11-11.66,18.04-17.61,14.36-14.39,29.87-27.47,46.08-39.71,11.75-8.86,23.98-17.01,37.5-23.05,9.02-4.03,18.39-6.59,28.24-7.61,6.95-.72,13.84-1.85,20.89-1.65,7.73.22,15.25,1.97,22.92,2.59,1.69.14,3.33,1.01,4.97,1.62,1.97.73,2.71,3.45,1.47,5.3-.58.86-1.16,1.75-1.88,2.49-.72.75-1.58,1.39-2.45,1.97-8.86,5.97-15.37,14.19-21.68,22.58-5.05,6.71-10.08,13.44-14.93,20.29-6.32,8.93-14.14,16.47-22.18,23.74-9.87,8.93-21.89,13.72-34.77,16.33-9.59,1.95-19.26,3.48-28.99,4.64-5.87.7-11.72,2.08-17.4,3.76-9.73,2.88-19.34,6.2-28.96,9.43-2.65.89-5.3,1.91-7.74,3.24-10.75,5.86-21.42,11.88-32.14,17.81-3.41,1.88-6.41,4.24-9.09,7.06-8.31,8.73-8.32,7.52-3.73,17.95.56,1.28.97,2.63,1.5,3.92.56,1.36,2.32,2.08,3.43,1.4,2.38-1.47,4.73-3.01,7.1-4.48,11.67-7.25,24.02-13.04,37.32-16.53,9.13-2.4,18.34-4.67,27.65-6.1,14.53-2.23,29.19-3.45,43.93-2.52,2.44.15,4.85.61,7.28.92,2.08.27,4.17.8,6.24.76,8.12-.18,15.92,2.36,23.99,2.61,1.32.04,2.64.82,3.9,1.39,2.3,1.04,2.64,4.63.65,6.2-.55.43-1.07.9-1.66,1.27-.59.38-1.21.71-1.85.99-10.77,4.72-19.57,12.23-27.89,20.24-6.07,5.85-12.57,11.15-19.13,16.38-6.88,5.48-14.64,9.61-22.92,12.61-21.1,7.64-42.61,13.75-64.83,17.23-5.53.86-11.04,1.82-16.53,2.86-5.11.97-10.54,1.25-14.27,5.71-2.95,1.07-5.86,2.26-8.85,3.18-1.63.5-3.41.55-5.03.78,0,.97-.26,1.82.04,2.18,2.04,2.4,4.18,4.71,6.32,7.01,2.93,3.15,4.72,6.86,5.92,10.97,1.91,6.51,2.82,12.96.47,19.58-.81,2.29-1.16,4.74-1.65,7.14-.05.24.36.57.59.91,2.83-.65,4.87-2.67,7.06-4.33,9.23-7.01,19.02-13.08,29.34-18.36,16.83-8.62,33.77-17.01,51.55-23.55,1.31-.48,2.62-1,3.94-1.45,1.84-.63,4.03-.11,4.72,1.17.88,1.65,1.05,3.54-.04,4.99-7.9,10.5-9.99,22.87-11.91,35.39-1.62,10.49-5.17,20.34-11.32,29.1-2.21,3.14-4.53,6.24-7.16,9.02-7.94,8.4-16.49,16.12-25.26,23.67-12.6,10.85-26.6,19.3-41.39,26.59-8.16,4.02-16.55,7.59-24.71,11.59-14.19,6.95-27.24,15.74-39.94,25.1-7.94,5.85-14.87,12.75-21.74,19.74-1.22,1.25-2.37,2.58-3.48,3.93-2.51,3.09-3.84,6.61-3.82,10.64.04,5.25.03,10.5-.05,15.75-.05,3.14.14,6.37-.5,9.41-1.53,7.3-1.26,14.67-.86,21.97.46,8.36,1.63,16.69,2.77,24.99,1.05,7.68.83,15.34.3,23.02-.05.65-.51,1.28-.77,1.92-.44,1.06-2.8,1.49-3.6.65-.48-.5-1.15-.91-1.42-1.51-3.9-8.58-8.66-16.91-10.07-26.36-1.24-8.28-2.81-16.54-2.65-24.99.1-5.57.14-11.15-.17-17.86-1.23,1.76-2,2.46-2.29,3.33-2.94,8.61-5.98,17.19-8.63,25.89-1.32,4.33-2.11,8.85-2.7,13.35-.31,2.36.04,4.91.6,7.25,1.25,5.2-.1,9.66-3.12,13.83-.96,1.33-3.6,1.55-4.57.19-.8-1.11-1.66-2.32-1.95-3.61-.46-2.03-.81-4.19-.59-6.24,1.04-9.91-1.12-19.52-2.71-29.16-.74-4.5-1.42-8.97-1.59-13.52-.04-1.05,0-2.12-.23-3.14-1.98-8.97-1.59-18.1-1.83-27.18-.13-4.89-.2-9.77-1.21-14.62-.56-2.71-.46-5.57-.5-8.36-.2-14.35-.32-28.7-.52-43.05-.03-2.44-.22-4.89-.49-7.31-.06-.51-.76-1.21-1.28-1.32-.4-.09-1.35.57-1.39.97-.23,2.08-.32,4.18-.33,6.28-.08,14.35-.14,28.7-.2,43.05-.02,4.2-.04,8.37-.9,12.54-.56,2.71-.56,5.56-.62,8.35-.18,8.05-.39,16.1-.35,24.15.1,19.35-3.41,38.25-6.91,57.16-.25,1.34-.94,2.63-1.63,3.83-.27.46-1.16.84-1.7.77-.58-.08-1.3-.61-1.59-1.15-.49-.9-.89-1.94-.96-2.94-.22-3.49-.29-6.99-.41-10.49-.22-5.94-.38-11.84-1.24-17.77-.74-5.13-.68-10.53.04-15.67.74-5.24.99-10.44,1.09-15.68.15-7.7.13-15.4.32-23.1.11-4.33-1.04-8.22-2.98-12.07-5.6-11.14-13.13-20.5-23.3-27.92-15-10.95-30.59-21.01-46.18-31.07-11.18-7.21-22.4-14.31-32.72-22.78-10.17-8.34-18.41-18.29-24.82-29.59-4.85-8.54-7.46-18.02-8.9-27.84-1.53-10.41-2.46-20.83-2.21-31.35.02-1.02-.29-2.06-.46-3.08-.13-.78-1.67-1.81-2.43-1.56-2.65.87-5.35,1.63-7.91,2.72-3.86,1.65-7.61,3.57-11.43,5.31-10.55,4.81-21.58,8.22-32.8,11.03-7.94,1.99-16.05,1.57-24.01.41-4.87-.71-9.75-.87-14.6-1.47-11.8-1.45-23.7-1.74-35.48-3.4-5.52-.78-11.18-.6-16.77-1.01-2.06-.15-4.14-.58-6.12-1.18-2.44-.75-3.6-3.81-2.44-6.04,2.28-4.38,5.21-8.17,9.05-11.42,14.91-12.61,31.89-21.44,50.21-27.87,4.95-1.74,9.96-3.33,14.97-4.9,7.04-2.2,14.17-3.9,21.62-3.82,1.4.02,2.85.04,4.18-.31,5.85-1.53,11.82-1.19,17.76-1.27,2.09-.03,4.18-.19,6.26-.34.24-.02.46-.36.9-.74-.75-.68-1.37-1.55-2.21-1.96-10.08-4.89-20.19-9.72-30.28-14.56-18.02-8.65-35.64-17.98-51.27-30.62-1.09-.88-2.25-1.68-3.29-2.6-7.59-6.73-15.17-13.47-22.73-20.23-5.25-4.7-10.89-8.79-17.5-11.41-1.3-.51-2.59-1.06-3.86-1.66-1.89-.89-2.9-2.62-2.54-4.1.47-1.91,1.85-2.97,3.56-3.47,1.66-.48,3.41-.79,5.14-.87,3.5-.18,7-.18,10.5-.21,5.6-.05,11.14-.35,16.71-1.29,8.26-1.39,16.65-2.01,24.99-2.94,1.39-.16,2.83-.07,4.18-.39,10.73-2.5,21.62-1.88,32.43-1.33,6.59.33,13.11,1.99,20.12,3.12,4.34-1.89,9.12-3.96,13.91-6.04.12-1.36-1.05-2-1.92-1.83-1.65.34-3.18,1.24-4.78,1.84-6.23,2.35-12.31,2.23-18.16-1.17-.6-.35-1.12-.83-1.67-1.27-2.34-1.9-2.61-5.4-.42-7.4,1.28-1.16,2.88-1.95,4.21-3.06.23-.2.02-1.44-.36-1.76-1.95-1.59-4.17-3.03-6.62-1.27-4.38,3.14-9.2,3.01-14.11,2.24-1.32-.21-2.59-1-3.78-1.69-1.91-1.12-2.25-3.95-.62-5.41,1.29-1.15,2.78-2.06,4.15-3.13.75-.58.29-1.95-.63-2.56-2.15-1.43-4.53-1.56-7.02-1.71-8.18-.5-14.51-4.58-19.63-10.71-1.76-2.11-2.04-5.01-.88-6.84,1.48-2.33,4.68-3.54,7.34-2.82,5.24,1.42,9.55,4.3,13.03,8.41,1.57,1.85,2.93,3.88,4.43,5.79.17.22.73.42.91.31.5-.32,1.26-.8,1.28-1.23.05-1.38-.37-2.78-.3-4.16.17-3.4,2.4-6,5.62-6.71,3.08-.67,5.47.61,7.41,2.88,2.08,2.44,3.34,5.34,4.18,8.39.75,2.69,1.19,5.47,1.99,8.15.9,2.98,3.25,4.45,6.17,5,.59.11,1.49-.15,1.88-.58.68-.75,1.07-1.76,1.58-2.66.68-1.21,1.26-2.5,2.08-3.6,1.76-2.34,5.48-2.27,7.34-.1,1.89,2.21,2.83,4.81,3.45,7.55.3,1.36.36,2.77.48,4.16.12,1.38.18,2.77.25,4.02,1.33,1.02,1.91.08,2.46-.66.62-.84,1.16-1.75,1.68-2.67.72-1.28.95-2.68.31-4.01-1.52-3.15-3.12-6.27-4.76-9.36-5.09-9.61-9.52-19.49-12.61-29.94-3.38-11.43-5.41-23.13-6.88-34.94-.43-3.47-.95-6.92-1.44-10.38-.77-5.38.4-10.42,2.64-15.28.69-1.5,3.4-2.08,4.54-.91,1.45,1.5,2.91,3.02,4.16,4.68,10,13.29,22.02,24.32,36.27,32.98,8.98,5.46,17.6,11.5,24.88,19.18,2.88,3.04,5.5,6.33,8.15,9.58,1.56,1.9,2.99,3.89,5.24,5.07.18.64.37,1.28.55,1.91.2-.11.39-.22.59-.33-.4-.51-.8-1.02-1.2-1.54ZM420.09,590.69c-2.07.32-4.07.92-5.54,2.47-4.02,4.22-7.98,8.49-11.89,12.81-.26.29.06,1.14.19,1.72.01.05.7.11.87-.05,4.22-4.01,8.46-8,12.58-12.11,1.44-1.44,2.57-3.18,3.83-4.79,1.22-.51,2.45-1,3.65-1.56.26-.12.56-.55.54-.8-.08-.85-.7-1.11-1.41-.51-1.01.86-1.88,1.87-2.82,2.82ZM533.59,353.37c4.64-.21,8.86-2.04,13.12-3.57,10.95-3.93,22.36-5.77,33.81-6.99,8.74-.93,17.28-2.56,25.78-4.6,13.68-3.28,25.12-10.53,34.78-20.51,4.85-5.01,9.22-10.52,13.52-16.03,6.67-8.54,13.07-17.29,19.63-25.92,2.11-2.77,4.4-5.41,6.5-8.19.19-.25-.34-1.53-.7-1.61-6.81-1.56-13.59-3.18-20.66-1.11-2.3.67-4.86.43-7.3.66-2.09.19-4.21.27-6.25.72-12.72,2.82-24.89,7.02-35.97,14.08-5.01,3.2-10.03,6.36-14.87,9.83-14.22,10.2-28.02,20.91-40.69,33.01-2.02,1.93-4.32,3.56-6.33,5.49-5.54,5.31-11.01,10.7-16.48,16.08-.13.13-.06.66.1.85.17.21.67.41.84.31,10.84-6.39,21.71-12.72,32.47-19.25,9.92-6.02,20.46-10.68,31.23-14.86,3.89-1.51,8-2.49,12.02-3.68.24-.07.84.2.85.34.04.58.15,1.5-.17,1.72-1.71,1.18-3.49,2.3-5.35,3.24-10.62,5.37-21.43,10.37-31.86,16.09-11.34,6.22-22.32,13.09-33.47,19.66-1.84,1.08-3.47,2.36-4.49,4.28-.65.16-1.29.33-1.94.49.11.21.22.41.33.62.53-.39,1.05-.77,1.58-1.16ZM354.05,508.64c.08.91.03,1.96.27,2.95,2.92,11.88,5.55,23.81,7.86,35.82,2.07,10.73,6.21,20.73,11.71,30.16,1.22,2.09,2.71,4.07,4.32,5.89,2.92,3.29,6.6,4.9,11.11,5.02,10.09.27,19.4-2.29,28.01-7.38,11.07-6.55,19.69-15.56,26.01-26.76,2.75-4.87,5.4-9.79,8.2-14.63,4.1-7.09,6.15-14.81,7.28-22.82.15-1.02.22-2.11.05-3.12-1.04-6.3-2.88-12.25-7.79-16.78-1.8-1.66-3.46-3.46-5.22-5.17-2.54-2.47-5.52-4.23-8.81-5.56-12.44-5.02-25.44-7.45-38.76-8.32-2.79-.18-5.59-.21-8.38-.12-.99.03-2.2.37-2.89,1.01-2.83,2.64-5.18,5.71-6.24,9.48-.35,1.24-.08,2.8.35,4.07.43,1.28,1.33,2.44,2.17,3.56,4.4,5.87,8.91,11.66,13.24,17.59,2.05,2.81,3.82,5.83,5.59,8.83.21.36-.2,1.42-.63,1.73-.42.3-1.25.11-1.88.02-.31-.04-.66-.29-.87-.54-6.56-7.71-13.48-15.14-19.08-23.63-.77-1.16-1.66-2.24-2.53-3.33-.85-1.05-2.7-1.4-3.8-.61-5.69,4.08-11.66,7.69-17.86,10.94-.56.29-.89,1.04-1.43,1.71ZM296.25,387.95c5.85-1.55,11.91-3.15,17.96-4.77.34-.09.65-.25.98-.36,2.18-.75,3.54-2.18,3.68-4.55.11-1.74.12-3.49.18-5.24.35-9.41-.35-18.87,1.67-28.2.44-2.01.07-4.19.26-6.27.44-4.75-.86-8.91-3.63-12.79-3.65-5.12-7.05-10.38-9.27-16.37-1.67-4.49-5.41-7.25-9.68-9.1-4.18-1.81-8.54-2.92-13.18-3.12-7.77-.33-15.43.55-22.86,2.46-6.78,1.74-13.35,4.72-17.92,10.31-5.73,7-11.42,14-15.59,22.24-3.69,7.29-4.48,14.56-3.26,22.33.22,1.38.77,2.72.88,4.09.62,8.12,4.58,14.48,10.12,20.15,5.38,5.51,11.23,10.46,17.14,15.39,5.48,4.57,11.54,7.83,18.01,10.54,2.24.94,4.22.58,5.69-1.19,2.68-3.23,5.38-6.37,8.83-8.89,3.53-2.58,3.77-4.48,1.66-8.02-4.28-7.21-8.65-14.37-12.93-21.58-.52-.87-.75-1.92-1.02-2.92-.06-.23.21-.63.43-.84.21-.2.61-.44.83-.37.64.2,1.4.4,1.83.87,5.71,6.19,10.83,12.8,14.64,20.36,1.08,2.15,1.83,4.59,4.54,5.83ZM300.57,501.51c-2.39,2.44-4.58,4.23-6.22,6.44-5.17,6.98-11.58,13.09-14.87,21.42-.88,2.22-2.64,4.09-4.01,6.11-5.14,7.6-8.32,16.09-11.35,24.66-.83,2.34-1.29,4.73-.87,7.2,1.33,7.83,4.81,14.61,10.61,19.99,6.95,6.45,14.88,11.41,23.49,15.51,12.01,5.72,24.38,5.32,36.89,3.07,4.08-.73,8.01-2.43,11.92-3.93,3.29-1.26,6.08-3.37,8.6-5.86,2.6-2.57,4.17-5.57,4.27-9.26.19-7.33.26-14.63-1.11-21.91-1.35-7.19-2.2-14.47-3.39-21.7-1.58-9.63-2.82-19.34-5.68-28.72-1.36-4.47-2.22-5.21-6.48-5.21-4.89,0-9.78.05-14.67.16-2.31.05-3.96,1.29-4.85,3.38-.54,1.27-.88,2.64-1.26,3.98-1.83,6.37-3.6,12.76-5.48,19.12-1.58,5.35-3.52,10.56-6.49,15.33-.11.18-.7.2-1,.1-.29-.1-.7-.46-.69-.69.07-1.35.06-2.76.42-4.04,3.04-10.74,6.17-21.46,9.25-32.2.38-1.33.87-2.71.83-4.06-.03-.88-.72-2.22-1.46-2.52-5.13-2.14-10.35-4.06-16.39-6.38ZM392.56,467.47c.89,1.71,2.44,2.53,4.23,2.66,3.14.22,6.3.38,9.44.3,8.85-.22,17.49,1,25.79,4.01,7.45,2.71,15.07,2.93,22.79,2.41,8.33-.55,13.46-5.09,15.25-13.34.67-3.08,1.36-6.16,1.74-9.28.68-5.57.92-11.18-.31-16.71-2.22-9.95-5.59-19.46-10.74-28.34-3.86-6.66-7.4-13.5-9.9-20.83-.68-1.98-1.54-3.92-2.54-5.76-4.15-7.67-10.33-13-18.41-16.38-5.34-2.24-10.24-1.56-15.11,1-1.23.64-2.38,1.49-3.42,2.41-4.2,3.73-8.08,7.73-10.81,12.75-3.19,5.86-6.93,11.31-11.43,16.29-2.3,2.55-4.73,5.16-5.52,8.53,2.97,6.95,5.85,13.68,8.74,20.41.14.31.34.68.61.83.58.32,1.32.83,1.84.68,1.67-.47,3.32-1.08,4.87-1.84,8.16-4.03,16.28-8.15,24.44-12.19,2.82-1.4,5.69-2.71,8.58-3.96.93-.41,2-.66,3.01-.67.47,0,1.02.66,1.4,1.12.13.15-.04.78-.25.95-5.27,4.15-11.49,6.62-17.35,9.72-7.11,3.76-14.39,7.22-21.57,10.87-1.66.85-2.49,2.41-2.65,4.26-.09,1.04-.1,2.1-.02,3.15.64,8.81-.08,17.46-2.75,25.92-.1.31.02.69.03,1.03ZM292.54,497.48c-.52-.92-.72-1.7-1.22-2.08-3.64-2.71-7.3-5.39-11.04-7.96-2.54-1.74-5.25-1.64-7.94-.21-5.56,2.95-11.17,5.79-16.66,8.85-8.56,4.78-17.68,8.32-26.64,12.22-.3.13-.75.2-1.01.07-.54-.27-1.06-.64-1.48-1.09-.12-.12.08-.81.3-.93,5.15-2.92,10.27-5.9,15.52-8.65,8.05-4.21,16.18-8.28,24.3-12.35,6.39-3.2,6.5-4.36,2.13-8.88-3.47-3.6-5.59-7.99-7.83-12.33-1.03-2-2.69-3.23-5-3.24-5.24-.01-10.44.04-15.64,1.16-8.53,1.85-17.08,3.86-25.73,4.82-16.01,1.76-28.07,9.83-37.95,21.92-1.63,2-2.28,4.33-2.06,6.85.15,1.72.48,3.46.98,5.12,1.54,5.03,3.55,9.88,6.46,14.28,6.59,9.94,14.28,18.98,23.1,27,2.56,2.33,5.48,4.39,8.51,6.08,7.68,4.27,15.7,5.67,24.12,2.02,14.38-6.24,27.11-14.47,35.1-28.56,1.03-1.81,2.36-3.47,3.71-5.06,4.51-5.33,9.12-10.58,13.65-15.89.88-1.03,1.6-2.19,2.31-3.17ZM186.95,465.97c-5.22-2.54-9.51-4.83-13.97-6.74-7.52-3.23-12.19-9.16-15.87-16.09-.82-1.54-1.54-3.16-2.07-4.82-1.14-3.59-3.58-5.88-6.87-7.49-7.85-3.85-15.64-7.83-23.53-11.63-7.25-3.49-14.56-6.85-21.88-10.17-5.09-2.31-10.28-4.42-15.37-6.75-.85-.39-1.45-1.37-2.08-2.14-.14-.17-.01-.67.13-.94.16-.29.52-.71.73-.68,1.36.22,2.76.38,4.04.85,18.41,6.79,35.84,15.77,53.68,23.85,6.96,3.15,8.32,4.26,9.18-4.21.24-2.38,1.28-4.71,2.17-6.97,1.02-2.6,2.37-5.07,3.41-7.67,2.4-5.98,2.24-6.84-2.27-10.97-2.31-2.12-4.71-4.2-7.26-6.01-8.89-6.31-18.43-11.33-28.77-14.91-11.05-3.82-22.6-4.32-34.02-5.74-1.71-.21-3.56-.14-5.22.29-5.5,1.4-11.11,1.22-16.69,1.56-2.79.17-5.56.55-8.34.86-3.47.39-6.93.83-10.4,1.21-2.43.27-4.93.21-7.29.75-4.14.94-8.3,1.15-12.51,1.24-1.38.03-2.77.23-4.14.43-.22.03-.49.41-.55.67-.07.3-.07.79.12.95,9.38,8.38,18.94,16.55,28.13,25.13,10.04,9.37,21,17.45,33.05,23.94,17.25,9.28,34.68,18.24,52.08,27.23,13.45,6.94,27.74,11.55,42.49,14.76,2.94.64,5.93,1.1,9.89.22ZM511.08,512.71c-18.3,9.91-31.35,18.05-43.26,27.83-7.28,5.97-14.4,12.24-18.52,21.1-.87,1.86-2.45,3.39-3.65,5.1-1.6,2.29-3.15,4.6-4.68,6.93-.12.18.03.68.22.88.18.2.63.37.85.28.97-.38,1.88-.88,2.84-1.3.8-.35,1.42-.1,1.69.72.1.3.1.78-.07,1-5.07,6.26-10.84,11.88-17.05,16.95-7.07,5.78-13.46,12.23-19.57,18.93-7.05,7.73-13.68,15.86-20.15,24.09-3.86,4.91-7.06,10.35-10.52,15.57-.09.14.16.64.38.82.21.16.7.26.87.13,3.59-2.76,7.23-5.46,10.7-8.38,10.74-9.04,22.39-16.78,34.81-23.24,12.08-6.28,24.56-11.81,36.82-17.76,5.03-2.44,10.14-4.78,14.87-7.73,18.18-11.32,34.62-24.83,49.22-40.52,5.29-5.68,9.46-12.12,11.76-19.62,1.23-4,2.29-8.05,3.4-12.09,2.04-7.4,2.2-15.22,5.06-22.44.42-1.06-.6-2.35-1.53-2.08-2,.6-4.08,1.04-5.97,1.88-11.16,4.99-22.28,10.08-28.51,12.9ZM204.45,458.56c4.48-.63,8.98-1.13,13.44-1.91,12.01-2.11,23.79-5.77,36.2-5.27,2.38.09,3.69-1.61,4.48-3.75.98-2.66,1.41-5.39,1.29-8.22-.06-1.29-1.05-2.99-2.18-3.29-3.37-.88-6.74-1.84-10.16-2.49-8.26-1.57-16.38-3.67-24.22-6.7-2.91-1.13-5.63-2.73-8.42-4.17-.23-.12-.47-.7-.37-.87.3-.51.78-1.32,1.17-1.31,2.07.06,4.19.1,6.18.59,11.2,2.73,22.36,5.6,33.55,8.39,1.34.34,2.73.59,4.1.71,1.51.13,2.89-.62,3.52-1.87,1.88-3.74,3.54-7.59,5.27-11.41,1.32-2.92,1.12-3.81-1.61-4.88-7.24-2.84-13.53-7.15-19.73-11.77-7.06-5.26-13.31-11.34-19.22-17.76-4.86-5.28-10.63-8.95-17.1-11.83-9.48-4.22-18.36-3.09-26.86,2.53-3.02,1.99-5.49,4.7-6.33,8.11-1.2,4.89-3.29,9.1-6.55,12.88-.88,1.02-1.38,2.43-1.89,3.73-2.04,5.2-4.22,10.36-5.96,15.67-3.48,10.62-3.98,8.87.31,21.16.57,1.64,1.31,3.24,2.14,4.77,2.21,4.05,5.09,7.48,9.16,9.85,9.2,5.36,18.85,9.13,29.8,9.13ZM376.9,398.26c1.06-.76,2.08-1.21,2.71-1.98,4.91-5.93,9.64-11.99,13.45-18.72,1.54-2.73,3.17-5.48,5.19-7.86,8.06-9.49,10.67-21.08,12.89-32.79,1.04-5.45-.64-10.44-4.41-14.55-6.98-7.6-14.83-13.81-25.35-15.79-3.09-.58-6.12-1.48-9.18-2.22-10.22-2.47-20.17-1.03-29.92,2.32-4.96,1.71-8.24,5.23-9.63,10.32-1.56,5.74-2.89,11.51-2.74,17.56.09,3.47.05,7.04-.62,10.42-2.19,11.12-1.09,22.31-1.15,33.48,0,.34.12.69.19,1.03.41,1.85,1.52,3.29,3.28,3.74,4.39,1.12,8.82,2.09,13.28,2.93,1.4.27,2.83-.41,3.59-1.71,5.1-8.79,9.79-17.77,12.27-27.72.93-3.73,1.72-7.5,2.8-11.19.37-1.26,1.38-2.35,2.16-3.48.15-.21.71-.39.9-.27.53.31,1.31.73,1.38,1.2.15,1.01.05,2.1-.16,3.12-1.81,8.54-3.18,17.22-6.39,25.39-1.83,4.65-2.22,9.51-2.76,14.37-.17,1.5.31,2.85,1.64,3.56,2.77,1.48,5.67,2.74,8.45,4.21,2.75,1.46,5.41,3.08,8.13,4.64ZM256.17,183c-.04.66-.26,1.36-.11,1.97,1.89,7.44,3.77,14.9,5.79,22.31,3.86,14.15,7.92,28.24,10.77,42.65,1.08,5.48,2.31,10.9,3.01,16.47.87,6.9,2.65,13.69,4.08,20.52.29,1.41,1.63,2.42,2.09,1.76.38-.54.87-1.25.81-1.82-.76-6.58-1.65-13.14-2.45-19.71-.42-3.46-.95-6.93-1.03-10.4-.31-12.92-.36-25.78,1.66-38.66,1.52-9.71,3.58-19.22,6.47-28.56,2.61-8.41,6.75-16.12,12.74-22.68,1.39-1.52,3.1-2.79,4.83-3.93,2.17-1.43,5.33-.46,6.19,1.81.74,1.95,1.4,3.94,1.89,5.97,1.14,4.75,2.12,9.54,3.22,14.3,2.43,10.55,4.88,21.09,7.35,31.62.27,1.16-.19,2.6,1.25,3.44,2.24-12.77,4.63-25.45,7.84-37.96,5.74-22.32,11.46-44.65,17.17-66.98.26-1.01.35-2.06.51-3.1.23-1.47-1.17-2.69-2.58-2.28-4.36,1.27-8.67,2.73-13.08,3.77-7.03,1.66-13.93,1-20.43-2.25-4.08-2.04-7.85-4.6-10.91-8.05-1.39-1.56-2.55-3.32-3.92-4.91-.4-.47-1.16-.92-1.71-.88-.44.03-1.08.78-1.19,1.3-.74,3.41-1.35,6.85-2.02,10.27-1.51,7.75-5.98,13.24-12.95,16.79-1.87.95-3.73,1.9-5.58,2.88-.94.5-1.32,1.94-.73,2.66.89,1.08,1.78,2.15,2.72,3.18,5.94,6.55,8.56,14.2,8.15,23.05-.54,11.71-6.46,19.6-16.8,24.5-2.92,1.38-5.99,1.78-9.2.94-1.25-.33-2.58-1.33-3.86.01ZM579.47,398.02c-7.32-.04-13.99-.22-20.5,1.56-10.22.23-20.13,2.57-30,4.83-15.45,3.54-30.02,9.37-43.35,18.15-6.37,4.2-7.16,6.33-5.58,14.08.28,1.36.83,2.67,1.29,3.99.47,1.37,2.05,2.34,3.3,1.91,2.97-1.02,5.96-2.02,8.87-3.21,16.21-6.6,32.49-13.01,49.19-18.29,4.67-1.48,9.35-2.95,14.08-4.23,1.64-.44,3.44-.3,5.17-.34.26,0,.78.45.75.63-.09.59-.21,1.43-.61,1.66-1.2.69-2.5,1.31-3.83,1.63-7.5,1.84-14.75,4.4-21.9,7.26-12.35,4.94-24.73,9.78-37.03,14.85-5.17,2.13-10.15,4.73-15.24,7.08-3.24,1.49-4.65,4.08-4.7,7.53-.02,1.05-.07,2.1-.08,3.15,0,1.45,1.27,2.71,2.64,2.6,5.59-.45,11.08-1.52,16.6-2.4,21.14-3.37,41.75-8.75,61.97-15.71,8.7-3,16.51-7.5,23.88-12.97,8.46-6.26,15.8-13.82,24.09-20.26,3.03-2.36,5.93-4.88,8.8-7.42.26-.23.14-1.5-.17-1.7-2.42-1.52-5.18-2.03-7.99-2.22-3.49-.24-7.08-.01-10.47-.74-6.58-1.4-13.2-1.52-19.18-1.43ZM204.4,362.67c-.45-2.44-.63-3.83-.97-5.18-2.59-10.17-5.79-20.17-9.91-29.8-5.4-12.64-13.01-23.88-22.89-33.56-6.53-6.41-13.88-11.75-21.54-16.62-9.83-6.25-18.33-13.95-26.28-22.34-2.16-2.28-4.41-4.47-6.65-6.66-.2-.2-.86-.28-.95-.17-.35.49-.84,1.11-.77,1.62,1.06,8.3,2.21,16.59,3.33,24.88,3.44,25.48,13.48,48.28,28.08,69.24,2.01,2.88,4.2,5.58,7.54,7.08,2.03.91,3.16,2.68,3.78,4.77.3,1,.42,2.06.76,3.05,1.2,3.56,3.39,6.23,7.33,6.56,3.5.3,5.76,2.17,7.73,4.77.69.91,1.74,1.13,2.79.59,1.16-.6,1.5-2.31.77-3.68-.65-1.23-1.3-2.48-2.05-3.65-6.02-9.42-12.08-18.81-18.08-28.25-3-4.72-5.98-9.45-8.75-14.3-1.19-2.09-2.09-4.43-2.61-6.77-.26-1.17.52-2.65,1.09-3.86.21-.45,1.18-.79,1.79-.75.56.03,1.47.53,1.59.98,1.71,6.55,5.32,12.12,8.97,17.67,6.91,10.51,13.89,20.98,20.86,31.45.96,1.45,1.98,2.87,3.1,4.21.95,1.14,2.36,1.62,3.77,1.36,1.7-.3,3.34-.96,5.02-1.42,2.02-.56,4.03-1.32,6.09-1.54,2-.21,4.06.16,7.08.33ZM160.75,488.38c-1.93,0-3.66,0-5.4,0-16.77-.04-33.55-.95-50.31.45-.37.03-.87-.89-1.19-1.44-.12-.21,0-.73.19-.91.49-.48,1.03-.95,1.63-1.25,3.55-1.8,7.41-1.89,11.27-1.89,13.64,0,27.28-.13,40.91.1,5.39.09,10.39-1.06,15.32-2.89.94-.35,1.74-1.14,2.55-1.78,1.46-1.15,1.4-3.69-.14-4.46-10.44-5.24-21.55-8.26-33.15-8.95-8.36-.5-16.81-.49-25.16.11-8.33.6-16.69,1.46-24.83,3.64-17.68,4.73-34.37,11.84-50.12,21.03-5.99,3.5-11.77,7.58-16.5,12.83-.58.64-.64,1.75-.95,2.64,4.84,2.11,9.64,2.75,14.56,2.8,11.89.13,23.59,2.77,35.51,2.61,1.71-.02,3.42.71,5.15.91,8.01.93,16.1,1.58,24.02-.09,8.54-1.8,16.9-4.43,24.92-7.97,10.22-4.52,20.47-8.99,30.67-13.55.44-.2.58-1.04,1.05-1.94ZM419.44,329.94c.5-.57,1.1-1.01,1.37-1.6,2.74-6.05,5.43-12.12,8.12-18.19.73-1.65.71-3.35.42-5.13-2.27-14.13-4.92-28.21-5.73-42.54-.22-3.82-1.09-7.6-1.8-11.38-.59-3.16-2.07-5.92-4.33-8.24-1.03-1.05-2.27-1.65-3.75-1.46-1.38.18-2.74.57-4.12.79-5.83.92-11.11-.34-15.78-4.04-1.08-.86-2.17-1.75-3.38-2.39-.38-.2-1.52.21-1.72.62-.91,1.87-1.59,3.86-2.4,5.78-1.77,4.18-3.17,8.57-5.43,12.46-6.32,10.87-12.45,21.89-20.25,31.84-1.06,1.36-2.05,2.86-1.54,4.97.88.3,1.82.74,2.81.95,7.52,1.57,15.05,3.12,22.59,4.64,13.73,2.76,31.53,17.32,33.83,31.28.09.53.65.98,1.1,1.63ZM289.26,437.99c-.79.79-1.47,1.16-1.63,1.69-.6,2-1.29,4.02-1.46,6.08-.89,10.39,2,20.05,5.94,29.5,2.45,5.89,6.97,9.5,12.6,11.94,5.3,2.3,10.79,2.62,16.45,1.53,10.44-2.02,20.21-5.87,29.07-11.6,15.79-10.21,23.11-24.79,21.15-43.7-.14-1.38-.38-2.79-.84-4.09-3.06-8.59-8.7-15.03-16.56-19.59-8.11-4.71-16.99-4.53-25.53-2.67-16.52,3.58-27,14.05-31.12,30.53-.67,2.67-.97,5.6-.61,8.3.55,4.13,1.26,8.41,2.9,12.19,6.4,14.75,20.75,18.69,33.9,11.57,7.64-4.14,13.09-10.24,16.59-18.29,1.89-4.34,2.52-8.67,2.31-13.27-.16-3.66-1.48-6.89-3.88-9.53-4.16-4.56-9.37-7.04-15.75-7.41.16,1.97,1.84,1.76,2.69,2.51,1.04.92,2.25,1.66,3.25,2.62,2.39,2.27,3.82,5.09,3.68,8.4-.29,6.76-1.92,13.2-6.3,18.52-1.74,2.11-4.05,3.86-6.38,5.32-4.25,2.66-8.7,2.22-12.96-.18-8.12-4.58-12.9-16.32-10.71-25.39,3.82-15.88,25.52-27.73,43.06-15.22,2.25,1.61,4.21,3.7,6.05,5.78,4.93,5.57,6.72,12.21,5.75,19.48-2.16,16.19-11.22,27.72-25.3,35.18-10.23,5.42-20.88,5.43-31-.85-2.04-1.27-3.96-2.94-5.47-4.81-6.32-7.82-10.6-16.44-9.92-26.89.16-2.42.02-4.87.02-7.65ZM172.69,519.75c0,1.42-.14,2.8.03,4.15.65,5.19,1.16,10.4,2.15,15.53,1.53,7.87,3.18,15.79,7.34,22.8,6.45,10.86,14.16,20.64,24.03,28.74,9.74,7.99,20.19,14.94,30.45,22.17,6.56,4.63,13.14,9.22,19.75,13.77,5.75,3.96,11.54,7.85,17.35,11.73.49.33,1.22.34,1.85.4.76.07.62-1.24-.41-2.68-2.85-3.97-5.71-7.93-8.61-11.85-14.1-19.07-28.26-38.1-42.3-57.22-2.36-3.21-5.04-5.79-8.86-6.99-6.88-2.17-12.24-6.55-17.24-11.51-7.96-7.87-15.12-16.4-21.53-25.58-.94-1.34-1.48-3.25-3.99-3.45ZM302.94,292.13c.91-.48,1.83-.66,2-1.12,1.34-3.6,2.57-7.24,3.78-10.88,2.66-7.99,4.59-16.23,5.52-24.53,1.48-13.22,1.12-26.56.18-39.84-.02-.35-.07-.7-.14-1.04-2.46-11.63-4.43-23.37-7.75-34.81-.29-.99-.61-2.02-1.17-2.86-.24-.36-1.41-.59-1.72-.34-3.4,2.7-5.23,6.5-6.86,10.37-6.69,15.97-10.09,32.71-10.99,49.94-.4,7.68-.02,15.4-.14,23.09-.15,9.14,1.14,18.14,2.61,27.11.16.99.65,1.99,1.22,2.83.85,1.26,2.28,1.75,3.67,1.36.89-.25,2.09-1.03,2.28-1.79.96-3.71,1.75-7.47,2.35-11.26.49-3.1.32-6.32.98-9.38.97-4.5,1.2-9.02,1.23-13.56.07-10.5.03-21,.06-31.5,0-2.45.06-4.89.23-7.33.03-.42.76-.85,1.25-1.15.13-.08.68.24.81.5,1.88,3.87,2.41,8.02,2.42,12.25.02,12.25.04,24.5-.01,36.74-.02,4.55-.32,9.06-1.25,13.56-.63,3.06-.65,6.25-.82,9.39-.07,1.35.16,2.73.26,4.25ZM242.73,117.07c2.73.81,5.11,2.25,7.32,2.02,3.93-.4,7.66.51,11.48.67,4.24.18,8.34-.18,12.35-1.8,4.85-1.96,8.34-5.07,9.73-10.21,3.75-13.81,1.11-26.37-7.99-37.34-2.65-3.19-6.27-5.66-10.61-6.36-5.79-.93-11.26.06-15.81,3.89-2.93,2.46-5.8,5.14-8.05,8.2-3.1,4.21-5.65,8.83-8.3,13.35-.68,1.17-.92,2.62-1.23,3.97-.32,1.39,1.22,3.39,2.89,3.92,1.14.36,2.04-.14,2.78-.9,2.19-2.25,4.22-4.66,6.55-6.76.95-.86,2.46-1.18,3.78-1.5.36-.09,1.42.86,1.35,1.12-.43,1.65-.9,3.36-1.72,4.84-2.19,3.93-5.6,7.14-7.01,11.24.81,3.79,1.53,7.19,2.48,11.65ZM182.67,75.19c0,.7,0,1.4,0,2.1-.06,6.42,2.45,11.48,7.82,15.12,4.05,2.75,8.02,5.64,12.6,7.46,1.27.5,2.69.87,4.03.85.92,0,2.12-.57,2.66-1.28.53-.69.8-2.1.45-2.84-1.22-2.5-2.91-4.77-4.14-7.26-.91-1.84-1.48-3.87-2.01-5.87-.13-.51.38-1.64.79-1.74.89-.22,2.05-.25,2.82.15.87.46,1.51,1.43,2.11,2.28,1.41,2,2.71,4.07,4.08,6.1.58.87,1.13,1.79,1.84,2.54,1.6,1.67,3.61,1.95,5.78,1.4,1.54-.39,2.27-1.56,2.68-2.93.69-2.34,1.46-4.69,1.84-7.09.44-2.81,1.25-5.46,2.6-7.92,2.88-5.24,2.82-10.87,1.57-16.34-1.5-6.59-4.73-12.39-10.51-16.38-3.7-2.56-7.69-3.16-11.95-1.58-9.27,3.44-16.04,9.84-20.89,18.23-2.63,4.56-4.16,9.62-4.18,14.99ZM213.88,142.7c.26-2.86.66-5.63.68-8.4,0-.78-.98-1.93-1.77-2.24-.8-.32-2.04-.03-2.88.4-.89.45-1.65,1.3-2.27,2.12-5.31,6.99-9.46,14.66-12.84,22.73-.66,1.59-1.2,3.34-1.26,5.04-.19,5.57-.49,11.18-.09,16.73.51,7.08,5.4,12.51,12.36,13.81,8.46,1.58,16.7,1.04,24.04-4.26,4.95-3.57,7.7-8.37,6.7-14.38-.97-5.82-1.57-11.76-3.67-17.37-1.22-3.26-2.24-6.55-2.61-10.09-.45-4.2-2.39-8-4.48-11.63-.38-.66-1.76-.92-2.7-.99-.53-.04-1.49.57-1.62,1.05-1.1,4.02-1.98,8.1-3.09,12.11-.55,1.99-1.41,3.89-2.2,5.8-.08.2-.63.3-.95.27-.26-.02-.65-.25-.73-.48-1.3-3.37-.45-6.87-.61-10.23ZM358.31,604.76c-7.63,4.24-14.08,7.71-21.16,9.81-1.43.42-2.49,1.56-2.49,3.05,0,9.43-.34,18.9.37,28.29.4,5.22.95,10.42,1.02,15.66.11,8.4.23,16.79.41,25.19.07,3.15-.09,6.37.54,9.41,1.3,6.24,1.16,12.52,1.31,18.81.08,3.1.17,6.2.27,9.49,2.28-1.02,2.35-2.97,2.85-4.53,4.14-13,8.02-26.08,12.32-39.02,2.12-6.4,3.38-12.79,3.17-19.54-.16-5.24.06-10.5.15-15.74.04-2.45-.19-4.97.3-7.33,1.95-9.36,1.05-18.83,1.39-28.25.05-1.36-.22-2.74-.44-5.31ZM327.7,304.49c4.97-3.3,7.14-6.02,9.34-8.71,1.32-1.62,2.5-3.37,3.88-4.94,11.6-13.11,21.55-27.44,31.05-42.1,4.2-6.48,7.37-13.47,9.52-20.89,1.16-4.02,2.37-8.04,3.3-12.12.7-3.04,1.23-6.16,1.37-9.27.07-1.63-.78-3.33-1.37-4.95-.54-1.48-2.41-2.07-3.37-1.08-2.92,2.99-5.82,6-8.64,9.09-2.82,3.09-5.4,6.41-8.33,9.39-4.92,5-9.33,10.37-13.12,16.28-2.26,3.53-4.59,7.01-7.01,10.43-9.46,13.34-14.95,28.31-18.3,44.17-.13.61.23,1.31.36,2,1.58-.42,1.6-1.96,2.15-3.07,4.21-8.44,8.31-16.92,12.57-25.33,1.09-2.15,2.57-4.13,4.01-6.08.33-.45,1.22-.49,1.85-.72.21.61.77,1.37.58,1.8-3.45,8.01-6.84,16.05-10.55,23.94-3.1,6.6-5.84,13.31-9.29,22.18ZM178.01,140.69c1.74,0,3.51.19,5.22-.04,3.82-.5,7.69-1.36,10.62-3.95,4.45-3.94,7.75-8.91,11.04-13.82.4-.6-.1-1.99-.51-2.86-.23-.48-1.13-.84-1.75-.87-1.02-.05-2.06.15-3.08.34-2.39.46-4.76,1-7.16,1.45-1.16.22-2.39-.52-2.39-1.33,0-1.18.69-1.91,1.63-2.45.9-.52,1.8-1.1,2.78-1.42,2.64-.87,5.34-1.58,7.99-2.45.58-.19,1.06-.77,1.54-1.21.51-.46-.26-1.96-1.35-2.53-4.01-2.1-8.11-4.05-12.03-6.3-4.63-2.65-9.67-4.12-14.83-4.83-6.04-.84-11.79.58-16.64,4.48-1.89,1.52-3.72,3.25-5.11,5.22-5.27,7.47-5.18,12.99-1.71,19.51.65,1.21,1.56,2.31,2.46,3.36,6.11,7.15,14.21,9.67,23.28,9.7ZM326.57,103.14c8.26-.38,15.7-3.17,22.43-7.89,1.08-.76,1.8-2.11,2.51-3.29.33-.55.52-1.43.32-2-1.38-4.04-3.69-7.57-6.84-10.38-1.94-1.73-4.69-.96-7.11-1.03-.7-.02-1.4,0-2.1-.02-.35,0-.7-.04-1.05-.06-2.1-.11-3.52-1.07-2.97-2.04.48-.84,1.13-1.83,1.95-2.19,2.55-1.12,5.28-1.86,7.83-2.99.83-.37,1.69-1.42,1.87-2.29.35-1.67.42-3.47.22-5.17-.11-.92-.82-2.1-1.61-2.55-5.69-3.26-11.56-4.6-18.02-1.92-7.77,3.21-13.22,9.02-18.24,15.38-3.16,4-3.49,8.23-.72,12.64,1.12,1.77,1.83,3.82,3.09,5.47,4.62,6.07,10.1,10.73,18.43,10.32ZM344.47,8.89c-5.44-.4-9.61,1.71-12.95,5.78-.89,1.08-1.81,2.13-2.64,3.25-3.09,4.23-3.74,8.96-2.64,13.96.69,3.14,2.43,5.74,4.49,8.18,4.43,5.22,10.35,8.12,16.35,11.06,3.35,1.64,6,.99,8.78-.92,2.14-1.47,2.76-3.32,1.67-5.32-2.49-4.6-5.01-9.18-7.4-13.83-.44-.86-.5-2.03-.39-3.02.05-.4,1.12-1.08,1.55-.96.94.26,2.06.74,2.58,1.49,2.38,3.44,4.61,6.98,6.83,10.52,1.11,1.77,2.06,3.64,3.17,5.41.86,1.36,2.94,1.44,5.78.34,2.16-.83,3.3-2.17,2.92-3.72-1.51-6.09-2.89-12.22-4.7-18.23-1.96-6.51-6.22-10.78-13.18-11.98-3.42-.59-6.82-1.33-10.23-2ZM609.5,171.52c-16.97-1.12-32.54.21-48.04,3.35-20.55,4.16-39.06,12.94-56.55,24.14-1.13.72-1.97,1.91-2.89,2.93-.14.16-.07.66.08.87.17.23.61.49.84.42,5.42-1.67,9.64-5.67,14.77-7.8,11.63-4.82,23.15-9.85,34.59-15.09.94-.43,1.99-.62,2.87.31.53.57-.02,1.88-1.15,2.46-9.33,4.79-18.66,9.56-27.98,14.36-.78.4-1.46,1.02-2.87,2.03,3.31.19,5.74.1,8.1-.59,3.75-1.09,7.59-1.38,11.43-1.24,8.12.3,15.93-2.06,23.95-2.57,1.36-.09,2.69-.72,4.04-1.07,14.48-3.86,27.23-10.73,38.83-22.51ZM419.37,67.92h0c-.7,0-1.4-.02-2.1,0-5.87.11-7.06,1.05-8.7,6.94-.19.67-.43,1.38-.38,2.05.08,1.02.23,2.11.68,3,.46.91,1.31,1.62,2,2.4,1.15,1.3,2.39,2.53,3.42,3.92.28.38.16,1.4-.17,1.78-.38.44-1.31.85-1.81.69-2.32-.73-4.6-1.62-6.85-2.55-1.79-.74-3.4-.58-4.85.68-1.05.92-2.06,1.89-3.01,2.91-1.31,1.4-1.43,3.11-.48,4.81,3.14,5.61,7.77,9.84,12.81,13.66,1.1.83,2.38,1.51,3.67,2,7.43,2.83,12.72,1.42,16.81-4.09,5.47-7.38,7.62-15.71,5.97-24.74-1.16-6.37-5.81-14.25-15.96-13.46-.35.03-.7,0-1.05,0ZM274.89,156.46c0-8.17-1.78-12.32-7.63-17.05-2.97-2.4-6.18-4.61-9.57-6.36-4.92-2.54-10.3-4.2-14.73-7.71-.32-.25-1.41.08-1.83.47-.41.38-.77,1.46-.53,1.77,1.66,2.21,3.45,4.34,5.26,6.43,1.82,2.1,3.97,4,4.65,6.84.13.53-.21,1.41-.64,1.76-.44.36-1.36.55-1.88.34-1.27-.52-2.59-1.13-3.61-2.02-2.62-2.3-5.06-4.81-7.65-7.14-.73-.65-1.74-1.01-2.66-1.41-.22-.1-.67.14-.91.34-.25.2-.54.54-.56.83-.04.68-.06,1.41.15,2.04,2.8,8.26,7.53,15.7,10.16,24.07.69,2.19,2.62,4.13,4.33,5.83,2.46,2.46,5.16,4.7,7.9,6.87,4.1,3.25,9.5,2.89,13.4-.64,4.73-4.29,6.72-9.64,6.37-15.25ZM192.18,222.4c0,1.5-.12,1.9.02,2.19,2.86,6,5.76,11.98,8.61,17.98,4.98,10.46,10.8,20.41,18.08,29.46,3.51,4.36,6.92,8.81,10.61,13.01,4.4,5,9.62,9.09,15.26,12.64.16.1.65-.13.83-.34.18-.2.33-.7.22-.86-3.83-5.42-7.65-10.84-11.57-16.2-6.61-9.04-13.32-18-19.9-27.06-1.41-1.94-2.43-4.18-3.58-6.3-.09-.16.21-.63.44-.82.22-.18.66-.32.87-.22,2.94,1.39,4.87,3.93,6.79,6.37,8.65,11,17.19,22.08,25.82,33.1.84,1.08,1.93,1.97,2.96,2.88.19.17.7.17.96.04.28-.14.63-.54.6-.8-.1-1.03-.13-2.13-.54-3.05-6.96-15.79-16.12-30.25-26.88-43.69-7.44-9.3-17.04-15.36-29.6-18.33ZM372.08,88.43c6.97-.52,15.05-2.07,20.81-9.27.87-1.08,1.92-2.02,2.86-3.05,1.67-1.83,2.74-3.98,3.55-6.32,2.48-7.2-.7-13.35-7.86-15.32-3.44-.94-6.86-1.04-10.33-.33-2.73.55-5.47,1.03-8.19,1.62-5.56,1.21-10.52,3.56-14.5,7.76-3.42,3.61-4.16,7.85-2.15,12.51,1.7,3.92,4.45,7.03,7.61,9.82,1.91,1.69,4.09,2.59,8.2,2.57ZM456.89,253.76c-4.12-13.96-9.3-27.23-16.43-39.68-1.38-2.41-3.07-4.65-4.75-6.87-.31-.42-1.32-.68-1.81-.49-.47.18-.93,1.02-.96,1.6-.36,6.95-.42,13.88-1.51,20.81-.69,4.4-.34,9.07.22,13.54,1.07,8.62,1.92,17.29,4.62,25.64.64,1.96.82,4.09,1.02,6.17.38,3.82,1.22,7.52,2.4,11.15.45-.1.94-.07,1.05-.25,6.02-10.19,11.05-20.87,16.15-31.6ZM337.33,389.76c-6.12-.21-9.88-.34-13.65-.47-5.66-.19-11.16.83-16.52,2.48-8.89,2.75-16.32,7.85-22.65,14.59-3.11,3.31-3.99,8.1-7.55,11.19-1.23,1.07-1.74,2.99-2.56,4.54-2.63,4.97-4.45,10.26-5.86,15.68-3.17,12.16-2.41,23.57,6.75,33.26.96,1.01,1.73,2.2,2.73,3.18.99.97,2.14,1.78,3.24,2.65.93.73,2.62.96,2.78.39.17-.62.39-1.34.24-1.92-1.26-4.72-2.69-9.4-3.9-14.13-2.22-8.69-1.72-17.25.99-25.81,2.35-7.44,5.86-14.21,10.64-20.31,2.79-3.56,5.5-7.34,8.9-10.25,8.95-7.63,19.31-12.49,31.12-13.97,1-.13,1.98-.4,5.3-1.08ZM423.86,31.06c.13-2.46-.81-6.18-2.32-9.73-4.09-9.59-16.37-12.85-24.67-6.57-7.4,5.6-11.14,13.23-12.11,22.32-.07.68.02,1.41.22,2.06.19.64.48,1.39.98,1.77,2.03,1.56,4.45,1.88,6.91,1.62.49-.05,1.2-.87,1.28-1.41.65-4.47.91-9.04,3.3-13.06.26-.43,1.22-.74,1.76-.63.55.11,1.28.74,1.41,1.27.32,1.34.42,2.74.48,4.13.17,3.84-2.63,7.69-.99,11.29,1.54,3.37,4.42,6.14,6.7,9.18.42.56.78,1.16,1.2,1.71,1.14,1.51,4.02,1.8,5.7.63,3.24-2.25,5.79-5.16,7.11-8.84,1.65-4.59,2.87-9.33,3.05-15.74ZM283.54,636.93c.32-.21.64-.43.96-.64-3.09-8.87-6.25-17.72-9.24-26.63-2.26-6.71-5.2-12.92-10.67-17.72-4.04-3.55-6.32-8.32-8.13-13.28-.84-2.29-1.65-4.64-2.04-7.04-.66-3.98-2.66-7.06-5.3-10-2.44-2.71-4.88-3.59-8.29-1.89-3.51,1.75-7.39,1.99-11.25,2.11-.98.03-2.18.03-2.44,1.27-.12.56.24,1.36.64,1.86,6.25,7.96,12.64,15.83,18.81,23.85,11.71,15.23,23.29,30.55,34.93,45.83.62.81,1.34,1.53,2.02,2.29ZM315.91,497.35c2.23,1.99,4.99,2.49,7.76,2.63,4.88.25,9.78.36,14.67.34,14.32-.06,25.47-6.59,34.28-17.41,5.33-6.55,9.02-14.11,12.19-21.9.78-1.91,1.17-4.03,1.38-6.09.28-2.77.12-5.59.32-8.37.53-7.67-1.9-14.43-6.18-20.65-.18-.25-.77-.56-.82-.51-.38.4-.99.93-.94,1.34.68,5.17,2.34,10.22,1.64,15.55-1.6,12.06-5.68,22.98-14.33,31.91-12.67,13.08-28.18,20.24-46.15,22.35-1.27.15-2.67-.24-3.81.81ZM386.27,112.37h-.06c0-3.14.02-6.28-.02-9.42,0-.69-.21-1.38-.32-2.06-.34-2.14-2.27-3.4-4.67-3.06-2.26.33-3.97,1.43-4.57,3.69-.99,3.71-1.76,7.47-2.79,11.17-.36,1.3-1.2,2.47-1.88,3.67-.38.67-2.43.47-2.76-.29-.54-1.26-1.25-2.53-1.41-3.86-.33-2.77-.27-5.57-.51-8.35-.09-1.01-.34-2.14-.89-2.95-.55-.8-1.5-1.44-2.42-1.84-1.08-.46-1.97.28-2.72,1.03-.24.24-.46.53-.64.83-4.74,8.14-4.52,16.63-1.55,25.21,1.3,3.75,3.94,6.48,7.36,8.56,6.87,4.19,15.24,1.65,18.34-5.81.79-1.9,1.3-4.01,1.43-6.06.23-3.47.06-6.97.06-10.46ZM373.04,590.76c-.32,1.29-.63,1.95-.64,2.62-.1,12.52-.18,25.03-.23,37.55,0,1.02.23,2.05.44,3.06.04.21.46.43.73.47.3.05.75,0,.92-.19.69-.76,1.35-1.57,1.94-2.41,6.18-8.83,12.34-17.66,18.52-26.49,1.39-1.99,2.88-3.91,4.18-5.96.2-.32-.2-1.32-.61-1.64-.49-.38-1.31-.57-1.95-.51-7.63.72-14.45-1.4-20.7-5.67-.53-.36-1.27-.43-2.61-.85ZM217.16,365.45c1.44-1.87.79-3.98.35-5.86-2.59-11.11-.92-21.44,5.16-31.1.72-1.15,1.09-2.54,1.49-3.87.46-1.52-1.05-3.71-2.6-3.92-.69-.09-1.39-.26-2.08-.23-6.5.25-12.45-1.33-17.77-5.18-.52-.38-1.28-.46-1.95-.56-.26-.04-.63.19-.86.4-.23.21-.54.6-.48.83.34,1.33.59,2.74,1.23,3.92,4.53,8.33,7.65,17.21,10.51,26.2,1.69,5.32,3.17,10.7,4.77,16.05.39,1.3.63,2.76,2.21,3.32ZM455.18,365.13c1.5-8.26,2.78-16.51,2.17-24.9-.55-7.64-1.29-15.27-1.96-22.9-.03-.33-.16-.75-.39-.94-.5-.4-1.16-1.04-1.64-.95-2.85.53-4.96,2.45-7.21,4.09-1.9,1.39-2.54,3.29-1.97,5.53,3.37,13.17,6.78,26.33,10.2,39.49.06.22.47.35.79.56ZM220.98,126.37c3.4.07,5.9-.51,7.38-1.63,5.37-4.05,5.59-12.79.38-17.39-.74-.65-1.79-1.06-2.77-1.29-2.45-.58-4.88-.29-7.06.95-2.11,1.2-4.11,2.59-6.12,3.96-1.72,1.18-2.6,3.55-1.87,5.53.71,1.94,1.54,3.87,2.63,5.62,1.77,2.84,4.44,4.31,7.44,4.26ZM305.91,653.05c.13-8.49.27-14.4.3-20.32.03-4.18-.02-8.36-.15-12.54-.07-2.31-1.41-3.93-3.5-4.76-2.59-1.03-5.22-1.97-7.89-2.73-.88-.25-2.08-.04-2.91.4-1.03.55-.96,1.76-.59,2.78,2.83,7.87,5.54,15.78,8.59,23.56,1.5,3.82,2.74,7.81,6.15,13.61ZM423.95,354.31c2.7.58,4.76.9,6.73,1.49,2,.6,3.88,1.57,5.88,2.18.9.27,2.07.35,2.91,0,1.11-.47,1.02-1.79.78-2.78-1.99-8.1-4.05-16.19-6.14-24.48-3.31,3.77-6.2,10.48-10.16,23.6ZM465.59,299.45c0-.64.06-1.34-.01-2.02-.57-5.16-1.07-10.34-1.79-15.48-.34-2.38-1.07-4.72-1.75-7.04-.16-.55-.82-1.22-1.33-1.31-.54-.09-1.37.29-1.76.74-.67.77-1.11,1.75-1.64,2.64-1.87,3.12-2.54,6.32-1.29,9.92,1.6,4.61,2.09,9.46,2.48,14.31.11,1.43,1.4,2.85,2.49,2.95,1.53.15,3.67-1.24,4.08-2.66.19-.66.34-1.33.52-2.06ZM462.31,362.23c1.93-3.49,1.55-5.63,1.71-7.68.32-4.16.29-8.36.91-12.47,1.46-9.71.79-19.43.6-29.16,0-.32-.14-.73-.36-.95-.46-.45-.99-1.07-1.54-1.12-.58-.06-1.42.3-1.77.76-.6.8-1.26,1.82-1.27,2.75-.06,3.82-.39,7.74.33,11.44,1.42,7.25,1.36,14.53,1.4,21.83.02,4.16,0,8.32,0,14.6ZM454.22,307.02c-.32-5.68-.64-11.21-.94-16.73-.05-.95-.45-1.35-1.3-1.09-.29.09-.6.36-.76.63-3.92,6.59-6.43,13.81-9.24,20.89-.23.59,0,1.36,0,2.05.01.84,1.62,1.88,2.31,1.46,3.53-2.11,7.48-3.68,9.92-7.2ZM202.32,266.38c-.92-3.85-2.65-6.82-4.82-9.57-.54-.69-2.25-.64-2.81.06-1.83,2.26-2.67,4.78-2.56,7.72.1,2.8,1.58,4.58,3.9,5.66.77.36,2.18.21,2.86-.29,1.34-1.01,2.37-2.42,3.44-3.57ZM221.68,293.07c-.23-1.01-.18-1.83-.56-2.3-1.93-2.41-3.95-4.76-5.99-7.08-.8-.91-2.8-.32-3.52.89-.94,1.6-1.23,3.34-.33,4.91,1.36,2.38,2.98,4.62,4.56,6.87.76,1.09,2.6,1,3.6-.19.87-1.03,1.59-2.19,2.23-3.1ZM327,438.37c-.5-.52-1.04-1.48-1.84-1.84-1.55-.69-3.67.1-4.55,1.37-1.44,2.09-1.43,5.27.27,6.52.66.48,2.1.61,2.79.22,2.21-1.26,3.26-3.37,3.32-6.28ZM315.96,292.92c-3.25,6.16-4.05,11.83.4,18.35.51-5.99.52-11.15.49-16.31,0-.53-.45-1.05-.89-2.03ZM236.22,306.27c-.44-.42-.87-.91-1.4-1.27-.2-.13-.78-.05-.91.13-1.54,2.26-3.07,4.53-4.47,6.87-.31.51-.12,1.35-.08,2.03.02.32.16.85.35.9.54.14,1.45.32,1.65.06,1.69-2.17,3.3-4.4,4.8-6.7.31-.47.04-1.31.04-2.01ZM132.35,197.86c.34,5.4.51,5.89,3.76,10.32.15.21.69.32.95.23.27-.1.62-.52.61-.78-.18-3.84-1.46-7.35-3.41-10.63-.15-.25-.75-.54-.82-.47-.42.39-.74.88-1.09,1.33ZM156.04,377.49c-.56.25-1.38.36-1.63.79-.58,1,.02,1.83.86,2.45.91.66,2.19.49,2.49-.42.18-.54.13-1.33-.16-1.79-.3-.48-1.02-.7-1.56-1.03ZM92.86,191.58c-.21-.26-.44-.76-.63-.74-1.01.08-2.05.18-2.98.53-.34.13-.42.96-.62,1.47.32.11.63.32.96.33,2.25.08,3.45-.52,3.28-1.59ZM398.03,614.34c-.21-.28-.46-.79-.59-.76-1.84.4-2.68,1.9-3.48,3.38-.12.22-.03.67.13.87.15.18.62.32.8.22,1.51-.84,2.64-2.03,3.14-3.71ZM188.63,249.65c0-.34.08-.71-.02-1.01-.19-.57-.49-1.1-.75-1.65-.25.59-.55,1.16-.74,1.77-.1.31-.06.68,0,1.01.13.65.21,1.35.51,1.92.38.71,1.03-.42,1-2.04ZM168.62,261.86c.97,1.25,2.37,1.06,3.67.96.37-.03.7-.6,1.05-.93-.29-.14-.57-.37-.88-.41-1.3-.16-2.65-.58-3.85.37ZM164.71,223.45c-.27.55-.73,1.09-.75,1.65-.03.59.34,1.21.54,1.81.27-.55.72-1.09.75-1.65.03-.59-.34-1.2-.54-1.81ZM117.96,214.05c1.01.29,1.43.06,1.05-.56-.1-.17-.65-.08-.99-.05-.04,0-.04.39-.06.61ZM225.48,303.17c-.07.29-.24.59-.2.86.14,1.05.51,1.11.91.14.1-.25.05-.62-.06-.88-.05-.11-.42-.08-.65-.12ZM116.97,350.01c-.35,0-.69-.03-1.03.03-.06,0-.05.39-.07.6.34.02.68.06,1.02.02.05,0,.05-.4.08-.65ZM144.93,366.78l-.63.27.62.28v-.56ZM182.49,471.69l-.06.57.68-.22-.62-.35ZM206.81,276.11l.38-.59-.57-.11.19.7Z"/>
    </g>
  </g>
</svg>